<svg xmlns="http://www.w3.org/2000/svg" xmlns:xlink="http://www.w3.org/1999/xlink" viewBox="0 0 180.2 87.19">
  <defs>
    <clipPath id="a" transform="translate(-0.17)">
      <rect width="180.37" height="87.24" fill="none"/>
    </clipPath>
    <clipPath id="c" transform="translate(-0.17)">
      <rect x="11.2" y="30.63" width="2.98" height="2.98" fill="none"/>
    </clipPath>
    <clipPath id="d" transform="translate(-0.17)">
      <rect x="2.77" y="53.34" width="2.98" height="2.98" fill="none"/>
    </clipPath>
    <clipPath id="e" transform="translate(-0.17)">
      <rect x="23.13" y="21.68" width="2.98" height="2.98" fill="none"/>
    </clipPath>
    <clipPath id="f" transform="translate(-0.17)">
      <rect x="11.2" y="24.67" width="2.98" height="2.98" fill="none"/>
    </clipPath>
    <clipPath id="h" transform="translate(-0.17)">
      <rect x="49.96" y="3.8" width="2.98" height="2.98" fill="none"/>
    </clipPath>
    <clipPath id="i" transform="translate(-0.17)">
      <rect x="20.15" y="21.68" width="2.98" height="2.98" fill="none"/>
    </clipPath>
    <clipPath id="j" transform="translate(-0.17)">
      <rect x="70.83" y="12.74" width="2.98" height="2.98" fill="none"/>
    </clipPath>
    <clipPath id="k" transform="translate(-0.17)">
      <rect x="52.94" y="21.68" width="2.98" height="2.98" fill="none"/>
    </clipPath>
    <clipPath id="l" transform="translate(-0.17)">
      <rect x="26.11" y="15.72" width="2.98" height="2.98" fill="none"/>
    </clipPath>
    <clipPath id="m" transform="translate(-0.17)">
      <rect x="35.06" y="18.7" width="2.98" height="2.98" fill="none"/>
    </clipPath>
    <clipPath id="o" transform="translate(-0.17)">
      <rect x="58.91" y="3.8" width="2.98" height="2.98" fill="none"/>
    </clipPath>
    <clipPath id="p" transform="translate(-0.17)">
      <rect x="14.2" y="36.59" width="2.98" height="2.98" fill="none"/>
    </clipPath>
    <clipPath id="q" transform="translate(-0.17)">
      <rect x="26.11" y="24.67" width="2.98" height="2.98" fill="none"/>
    </clipPath>
    <clipPath id="s" transform="translate(-0.17)">
      <rect x="75.5" y="15.32" width="2.98" height="2.98" fill="none"/>
    </clipPath>
    <clipPath id="t" transform="translate(-0.17)">
      <rect x="58.91" y="24.67" width="2.98" height="2.98" fill="none"/>
    </clipPath>
    <clipPath id="u" transform="translate(-0.17)">
      <rect x="10.54" y="14.65" width="2.98" height="2.98" fill="none"/>
    </clipPath>
    <clipPath id="v" transform="translate(-0.17)">
      <rect x="71.87" y="22.25" width="2.98" height="2.98" fill="none"/>
    </clipPath>
    <clipPath id="x" transform="translate(-0.17)">
      <rect x="41.02" y="18.7" width="2.98" height="2.98" fill="none"/>
    </clipPath>
    <clipPath id="y" transform="translate(-0.17)">
      <rect x="6.14" y="47.39" width="2.98" height="2.98" fill="none"/>
    </clipPath>
    <clipPath id="z" transform="translate(-0.17)">
      <rect x="20.16" y="33.58" width="2.98" height="2.98" fill="none"/>
    </clipPath>
    <clipPath id="ab" transform="translate(-0.17)">
      <rect x="67.85" y="12.74" width="2.98" height="2.98" fill="none"/>
    </clipPath>
    <clipPath id="ac" transform="translate(-0.17)">
      <rect x="64.87" y="15.72" width="2.98" height="2.98" fill="none"/>
    </clipPath>
    <clipPath id="ad" transform="translate(-0.17)">
      <rect x="64.87" y="18.7" width="2.98" height="2.98" fill="none"/>
    </clipPath>
    <clipPath id="ae" transform="translate(-0.17)">
      <rect x="55.92" y="12.74" width="2.98" height="2.98" fill="none"/>
    </clipPath>
    <clipPath id="af" transform="translate(-0.17)">
      <rect x="51.37" width="2.98" height="2.98" fill="none"/>
    </clipPath>
    <clipPath id="ag" transform="translate(-0.17)">
      <rect x="52.94" y="9.76" width="2.98" height="2.98" fill="none"/>
    </clipPath>
    <clipPath id="ah" transform="translate(-0.17)">
      <rect x="49.96" y="15.72" width="2.98" height="2.98" fill="none"/>
    </clipPath>
    <clipPath id="ai" transform="translate(-0.17)">
      <rect x="44" y="9.76" width="2.98" height="2.98" fill="none"/>
    </clipPath>
    <clipPath id="aj" transform="translate(-0.17)">
      <rect x="41.02" y="6.78" width="2.98" height="2.98" fill="none"/>
    </clipPath>
    <clipPath id="ak" transform="translate(-0.17)">
      <rect x="35.06" y="15.72" width="2.98" height="2.98" fill="none"/>
    </clipPath>
    <clipPath id="al" transform="translate(-0.17)">
      <rect x="20.15" y="18.7" width="2.98" height="2.98" fill="none"/>
    </clipPath>
    <clipPath id="am" transform="translate(-0.17)">
      <rect x="26.11" y="18.7" width="2.98" height="2.98" fill="none"/>
    </clipPath>
    <clipPath id="ao" transform="translate(-0.17)">
      <rect x="67.85" y="9.76" width="2.98" height="2.98" fill="none"/>
    </clipPath>
    <clipPath id="ap" transform="translate(-0.17)">
      <rect x="67.85" y="18.7" width="2.98" height="2.98" fill="none"/>
    </clipPath>
    <clipPath id="aq" transform="translate(-0.17)">
      <rect x="11.22" y="33.61" width="2.98" height="2.98" fill="none"/>
    </clipPath>
    <clipPath id="ar" transform="translate(-0.17)">
      <rect x="8.24" y="36.59" width="2.98" height="2.98" fill="none"/>
    </clipPath>
    <clipPath id="as" transform="translate(-0.17)">
      <rect x="17.17" y="39.58" width="2.98" height="2.98" fill="none"/>
    </clipPath>
    <clipPath id="at" transform="translate(-0.17)">
      <rect x="14.51" y="48.41" width="2.98" height="2.98" fill="none"/>
    </clipPath>
    <clipPath id="au" transform="translate(-0.17)">
      <rect x="5.26" y="39.57" width="2.98" height="2.98" fill="none"/>
    </clipPath>
    <clipPath id="av" transform="translate(-0.17)">
      <rect x="58.91" y="6.78" width="2.98" height="2.98" fill="none"/>
    </clipPath>
    <clipPath id="aw" transform="translate(-0.17)">
      <rect x="55.92" y="21.68" width="2.98" height="2.98" fill="none"/>
    </clipPath>
    <clipPath id="ax" transform="translate(-0.17)">
      <rect x="11.22" y="39.57" width="2.98" height="2.98" fill="none"/>
    </clipPath>
    <clipPath id="ay" transform="translate(-0.17)">
      <rect x="41.02" y="12.74" width="2.98" height="2.98" fill="none"/>
    </clipPath>
    <clipPath id="az" transform="translate(-0.17)">
      <rect x="32.07" y="6.78" width="2.98" height="2.98" fill="none"/>
    </clipPath>
    <clipPath id="bb" transform="translate(-0.17)">
      <rect x="70.83" y="15.72" width="2.98" height="2.98" fill="none"/>
    </clipPath>
    <clipPath id="bc" transform="translate(-0.17)">
      <rect x="67.85" y="15.72" width="2.98" height="2.98" fill="none"/>
    </clipPath>
    <clipPath id="bd" transform="translate(-0.17)">
      <rect x="49.96" y="18.7" width="2.98" height="2.98" fill="none"/>
    </clipPath>
    <clipPath id="be" transform="translate(-0.17)">
      <rect x="46.98" y="0.65" width="2.98" height="2.98" fill="none"/>
    </clipPath>
    <clipPath id="bf" transform="translate(-0.17)">
      <rect x="46.98" y="9.76" width="2.98" height="2.98" fill="none"/>
    </clipPath>
    <clipPath id="bg" transform="translate(-0.17)">
      <rect x="44" y="15.72" width="2.98" height="2.98" fill="none"/>
    </clipPath>
    <clipPath id="bh" transform="translate(-0.17)">
      <rect x="44" y="18.7" width="2.98" height="2.98" fill="none"/>
    </clipPath>
    <clipPath id="bi" transform="translate(-0.17)">
      <rect x="21.62" y="8.04" width="2.98" height="2.98" fill="none"/>
    </clipPath>
    <clipPath id="bj" transform="translate(-0.17)">
      <rect x="77.96" y="11.13" width="2.98" height="2.98" fill="none"/>
    </clipPath>
    <clipPath id="bk" transform="translate(-0.17)">
      <rect x="35.06" y="2.34" width="2.98" height="2.98" fill="none"/>
    </clipPath>
    <clipPath id="bl" transform="translate(-0.17)">
      <rect x="29.09" y="21.68" width="2.98" height="2.98" fill="none"/>
    </clipPath>
    <clipPath id="bm" transform="translate(-0.17)">
      <rect x="14.17" y="27.65" width="2.98" height="2.98" fill="none"/>
    </clipPath>
    <clipPath id="bn" transform="translate(-0.17)">
      <rect x="26.11" y="12.74" width="2.98" height="2.98" fill="none"/>
    </clipPath>
    <clipPath id="bo" transform="translate(-0.17)">
      <rect x="23.13" y="24.67" width="2.98" height="2.98" fill="none"/>
    </clipPath>
    <clipPath id="bp" transform="translate(-0.17)">
      <rect x="20.15" y="27.65" width="2.98" height="2.98" fill="none"/>
    </clipPath>
    <clipPath id="bq" transform="translate(-0.17)">
      <rect x="17.16" y="30.63" width="2.98" height="2.98" fill="none"/>
    </clipPath>
    <clipPath id="br" transform="translate(-0.17)">
      <rect x="11.5" y="45.33" width="2.98" height="2.98" fill="none"/>
    </clipPath>
    <clipPath id="bt" transform="translate(-0.17)">
      <rect x="55.92" y="3.8" width="2.98" height="2.98" fill="none"/>
    </clipPath>
    <clipPath id="bu" transform="translate(-0.17)">
      <rect x="23.13" y="15.72" width="2.98" height="2.98" fill="none"/>
    </clipPath>
    <clipPath id="bv" transform="translate(-0.17)">
      <rect x="17.17" y="24.67" width="2.98" height="2.98" fill="none"/>
    </clipPath>
    <clipPath id="bw" transform="translate(-0.17)">
      <rect x="46.98" y="15.72" width="2.98" height="2.98" fill="none"/>
    </clipPath>
    <clipPath id="bx" transform="translate(-0.17)">
      <rect x="36.33" y="28.96" width="15.94" height="27.23" fill="none"/>
    </clipPath>
    <clipPath id="bz" transform="translate(-0.17)">
      <rect x="52.94" y="33.61" width="2.98" height="2.98" fill="none"/>
    </clipPath>
    <clipPath id="ca" transform="translate(-0.17)">
      <rect x="55.92" y="45.53" width="2.98" height="2.98" fill="none"/>
    </clipPath>
    <clipPath id="cb" transform="translate(-0.17)">
      <rect x="46.98" y="36.59" width="2.98" height="2.98" fill="none"/>
    </clipPath>
    <clipPath id="cc" transform="translate(-0.17)">
      <rect x="60.51" y="46.24" width="2.98" height="2.98" fill="none"/>
    </clipPath>
    <clipPath id="cd" transform="translate(-0.17)">
      <rect x="49.96" y="39.57" width="2.98" height="2.98" fill="none"/>
    </clipPath>
    <clipPath id="ce" transform="translate(-0.17)">
      <rect x="44" y="48.52" width="2.98" height="2.98" fill="none"/>
    </clipPath>
    <clipPath id="cg" transform="translate(-0.17)">
      <rect x="55.92" y="42.55" width="2.98" height="2.98" fill="none"/>
    </clipPath>
    <clipPath id="ch" transform="translate(-0.17)">
      <rect x="46.98" y="42.55" width="2.98" height="2.98" fill="none"/>
    </clipPath>
    <clipPath id="ci" transform="translate(-0.17)">
      <rect x="49.96" y="33.61" width="2.98" height="2.98" fill="none"/>
    </clipPath>
    <clipPath id="cj" transform="translate(-0.17)">
      <rect x="49.96" y="48.52" width="2.98" height="2.98" fill="none"/>
    </clipPath>
    <clipPath id="cl" transform="translate(-0.17)">
      <rect x="55.92" y="36.59" width="2.98" height="2.98" fill="none"/>
    </clipPath>
    <clipPath id="cm" transform="translate(-0.17)">
      <rect x="52.94" y="39.57" width="2.98" height="2.98" fill="none"/>
    </clipPath>
    <clipPath id="cn" transform="translate(-0.17)">
      <rect x="46.98" y="45.53" width="2.98" height="2.98" fill="none"/>
    </clipPath>
    <clipPath id="co" transform="translate(-0.17)">
      <rect x="58.91" y="39.57" width="2.98" height="2.98" fill="none"/>
    </clipPath>
    <clipPath id="cp" transform="translate(-0.17)">
      <rect x="41.02" y="39.58" width="2.98" height="2.98" fill="none"/>
    </clipPath>
    <clipPath id="cq" transform="translate(-0.17)">
      <rect x="46.98" y="51.5" width="2.98" height="2.98" fill="none"/>
    </clipPath>
    <clipPath id="cs" transform="translate(-0.17)">
      <rect x="52.94" y="28.99" width="2.98" height="2.98" fill="none"/>
    </clipPath>
    <clipPath id="ct" transform="translate(-0.17)">
      <rect x="52.94" y="42.55" width="2.98" height="2.98" fill="none"/>
    </clipPath>
    <clipPath id="cu" transform="translate(-0.17)">
      <rect x="49.96" y="45.53" width="2.98" height="2.98" fill="none"/>
    </clipPath>
    <clipPath id="cv" transform="translate(-0.17)">
      <rect x="46.98" y="33.61" width="2.98" height="2.98" fill="none"/>
    </clipPath>
    <clipPath id="cw" transform="translate(-0.17)">
      <rect x="46.98" y="48.52" width="2.98" height="2.98" fill="none"/>
    </clipPath>
  </defs>
  <g>
    <g clip-path="url(#a)">
      <g>
        <path d="M4.91,51.69h0c-.38.36-.38.38-.11.6a.82.82,0,0,0,.12-.61h0" transform="translate(-0.17)" fill="#fff"/>
        <path d="M3.34,48.92c.12-.05.08-.19.06-.28,0-.24.07-.35.26-.46s.17.19.3.12.24.1.3.21-.06.22-.16.27-.15.07-.07.15.13.55.31.78,0,.37.2.49a5,5,0,0,1,.2,1.09.53.53,0,0,0,.18.39c.15-.46,0-1,.25-1.43.16-.31,0-.79,0-1.2s-.38-.5-.13-.82c0,0,0,0,0-.08a1,1,0,0,1,0-.63c.16-.12,0-.2,0-.3-.07-.29.07-.6,0-.9-.13.11-.08.25-.08.36s0,.22-.14.24-.13-.11-.18-.17a.35.35,0,0,1-.07-.2c0-.14-.08-.13-.17-.13-.37,0-.24.3-.3.49a.48.48,0,0,1-.51.41l-.13,0-.06-.37c-.1-.18-.25-.06-.34,0s0,.13,0,.2c.08.25-.13.45-.09.72a1.86,1.86,0,0,0,.21.92c.06.08.09.24.23.18" transform="translate(-0.17)" fill="#fff"/>
        <path d="M5,45.38c.15-.12.31-.3.26-.48a8.31,8.31,0,0,1,0-1.41c0-.18-.33-.48-.51-.42s0,.08,0,.14c.09.31.16.63-.25.84.22,0,.34.1.2.29s0,.18,0,.26.09.33-.19.28-.2.14-.24.25,0,.17,0,.23-.08.26,0,.39.11.11.11.21.15.21.28.09.14-.13.23,0S5,46.13,5,46s.06-.26-.06-.37,0-.15.06-.22" transform="translate(-0.17)" fill="#fff"/>
        <path d="M6.17,41.9c-.06.4,0,.6.4.67a.25.25,0,0,1,.15-.1c.08,0,.11-.09,0-.15s-.24-.3,0-.45a.25.25,0,0,0,.13-.34h0a.93.93,0,0,1,0-.37c0-.23,0-.45,0-.68a.22.22,0,0,0-.2-.23c-.17,0-.07.15-.1.24s.06.44-.07.64a2.17,2.17,0,0,0-.22.79" transform="translate(-0.17)" fill="#fff"/>
        <path d="M6.79,46.14c.09,0,.12,0,.16-.1s-.11-.37-.08-.58c0,0-.11-.05-.15,0a.25.25,0,0,1-.2.12c-.2.06-.2.16-.15.35s.18.5.12.7c-.11.39.15.72.1,1.08a.14.14,0,0,0,.11.16c.09,0,.13,0,.19-.09s.05-.17.06-.26,0-.42-.17-.57,0-.22.08-.33.18-.29-.11-.3c-.1,0-.11-.08-.11-.16s.07-.1.15,0" transform="translate(-0.17)" fill="#fff"/>
        <path d="M5.32,36.73c-.07.05-.07.2-.09.31s.17.49.1.75,0,.28,0,.43,0,.19.18.11.14-.26.12-.41a9.66,9.66,0,0,1,.23-1.51c0-.29.22-.6,0-.93,0,.17-.17.25-.15.42a.91.91,0,0,1-.29.83" transform="translate(-0.17)" fill="#fff"/>
        <path d="M7.5,41.38c-.1,0-.1.13-.11.23a2.63,2.63,0,0,0,.14.83v0a0,0,0,0,1,0,0,3.59,3.59,0,0,1,0,1.46s0,.08,0,.12a.21.21,0,0,0,.15.24s0,0,0,0,.11-.11.15-.19c.15-.29-.1-.67.23-.91,0,0,0-.09-.05-.13s-.11-.12,0-.19.05-.12,0-.18-.07-.25,0-.38.19-.09.13-.24c-.18.05-.32.37-.55.08a.29.29,0,0,1,0-.39h0c.09-.08,0-.19,0-.27a.12.12,0,0,0-.15-.08" transform="translate(-0.17)" fill="#fff"/>
        <path d="M7.54,32.33a.43.43,0,0,0-.4.45.37.37,0,0,0,0,.15c-.34.36-.34.5,0,.7,0,.26-.21.52,0,.78.11,0,.13-.12.16-.22.1-.34.22-.67.33-1s.14-.6-.1-.87" transform="translate(-0.17)" fill="#fff"/>
        <path d="M50.8,69.87a3.34,3.34,0,0,0,1.18,0c.25-.1.5.11.76.06a1.43,1.43,0,0,1,.32-.28c.08,0,.2-.11.15-.23s-.17-.07-.27-.06c-.72.44-1.58.15-2.37.38a.25.25,0,0,0,.23.12" transform="translate(-0.17)" fill="#fff"/>
        <path d="M6.5,43.25c-.47-.18-.43-.63-.52-1l0,0c-.05-.17.06-.33,0-.5s0-.23-.16-.2a.18.18,0,0,0-.16.19.14.14,0,0,0,0,.06c.06.17.11.34.16.5a.43.43,0,0,0,.06.58.27.27,0,0,1,.06.31,2,2,0,0,0,0,.92,1.13,1.13,0,0,1,0,.68.19.19,0,0,0,.07.22.11.11,0,0,0,.14,0c.09-.05.09-.12,0-.21s0-.12,0-.14c.23-.19.07-.28-.08-.38s-.06-.1-.07-.17.11-.33.2-.5c.32,0,.32,0,.22-.3" transform="translate(-0.17)" fill="#fff"/>
        <path d="M1.3,38.6a.77.77,0,0,0,.33-.6.91.91,0,0,1,.29-.62c.17-.14,0-.29,0-.43s-.12-.12-.21,0c-.25,0-.51.08-.55.38,0,.14,0,.29-.1.4a.16.16,0,0,0,0,.15s.09,0,.13,0,.2,0,.21.1v.19c0,.15-.19.3-.08.48" transform="translate(-0.17)" fill="#fff"/>
        <path d="M17.72,18.71c.09,0,.22-.1.19-.18-.1-.25.1-.3.22-.39s.29-.24.23-.44.09-.26-.07-.31a.16.16,0,0,0-.19.13c-.12.35-.48.54-.57.9,0,.08-.17.12-.09.22a.29.29,0,0,0,.28.07" transform="translate(-0.17)" fill="#fff"/>
        <path d="M6.11,46.52c.12-.06.09-.16,0-.26a.49.49,0,0,1,0-.27c0-.13-.25-.35-.33-.29s-.36.25-.33.52.06.5.08.75h0a4.1,4.1,0,0,0,0,1c0,.06,0,.11,0,.16s0,.14.08.15a.11.11,0,0,0,.12-.12.11.11,0,0,1,0-.08.42.42,0,0,0,.1.2c0,.12,0,.25,0,.38l-.2.3c-.22.27-.13.52.18.58s.18,0,.18-.15v-.55c0-.3,0-.6.1-.91s-.1-.63,0-1A.18.18,0,0,0,6,46.75H6c-.15,0-.1.14-.09.21a1.29,1.29,0,0,1,0,.48c-.23-.08-.08-.28-.14-.42s0-.47,0-.75l.13.1c.07.05.06.21.19.14" transform="translate(-0.17)" fill="#fff"/>
        <path d="M61.16,80.11s.11-.09.06-.15-.12,0-.18,0a3.16,3.16,0,0,1-.77.45c-.3.16-.59.36-.88.54a.78.78,0,0,0-.67.5c0,.14,0,.23.18.19l.38,0a1.89,1.89,0,0,0,1.1-.84.6.6,0,0,1,.3-.29,1.24,1.24,0,0,0,.48-.4" transform="translate(-0.17)" fill="#fff"/>
        <path d="M7,38.06S6.9,38,6.84,38s0,.07,0,.12a1,1,0,0,1-.06.56,1.64,1.64,0,0,0-.1,1.17A2.07,2.07,0,0,0,7,38.56c0-.17.08-.34-.06-.5" transform="translate(-0.17)" fill="#fff"/>
        <path d="M9.6,30.2a.08.08,0,0,0,.07,0,2.46,2.46,0,0,0,.44-.85c0-.1-.07-.19-.16-.25a.18.18,0,0,0-.23,0c-.07.07-.13.14,0,.26s0,.23-.09.3a1.14,1.14,0,0,0-.15.36c0,.09,0,.19.16.18" transform="translate(-0.17)" fill="#fff"/>
        <path d="M5.59,39.45c0,.19.07.39,0,.57s0,.12.08.15.09,0,.12-.05a1.44,1.44,0,0,0,.34-.8c0-.31-.11-.31-.27-.24a.42.42,0,0,0-.22.38" transform="translate(-0.17)" fill="#fff"/>
        <path d="M12,26.69a.36.36,0,0,0,.23-.47l0-.06c-.08-.15-.23-.13-.36,0s-.42.09-.34.39a1.38,1.38,0,0,0-.14.66,1.8,1.8,0,0,1,.64-.48" transform="translate(-0.17)" fill="#fff"/>
        <path d="M39.4,86.47,39,86.35c-.09-.16-.2-.22-.36-.1h-.25c-.11,0-.23,0-.31.09s0,.31,0,.46l.17.15a.66.66,0,0,0,.29.17c.32.12.41.09.57-.2l.37-.16h.1c.1-.18.08-.29-.16-.27" transform="translate(-0.17)" fill="#fff"/>
        <path d="M3.76,45c.08,0,.19.18.24,0s.12-.3-.07-.41-.15-.07-.15-.17-.16-.35-.41-.4a1.09,1.09,0,0,1,.1,1c.14,0,.19-.13.29-.07" transform="translate(-0.17)" fill="#fff"/>
        <path d="M54.3,83.43a3.85,3.85,0,0,1-.81.27,1,1,0,0,0-.52.36c.59,0,1-.32,1.45-.49a.09.09,0,0,0,.06-.11,0,0,0,0,1,0,0c0-.06-.12,0-.17,0" transform="translate(-0.17)" fill="#fff"/>
        <path d="M6,37.38a1.25,1.25,0,0,0,.12,1.17,1.77,1.77,0,0,0,.06-1.16c0-.08-.1-.12-.18,0" transform="translate(-0.17)" fill="#fff"/>
        <path d="M3.74,40.22c.09-.08.22-.16.13-.31a.2.2,0,0,0-.23-.12.32.32,0,0,0-.26.26.79.79,0,0,0,.1.7s0,.12.11.06c0-.21,0-.43.15-.6" transform="translate(-0.17)" fill="#fff"/>
        <path d="M7.15,34.69c-.08,0-.14,0-.13.12A.37.37,0,0,1,7,35c-.11.2,0,.51-.3.59,0-.11,0-.23-.15-.21s-.1.13-.1.22a1.93,1.93,0,0,1,0,.34c0,.13-.21.27-.06.37s.21-.15.33-.21,0,0,0-.07a3.46,3.46,0,0,0,.51-1.2c0-.1,0-.15-.13-.16" transform="translate(-0.17)" fill="#fff"/>
        <path d="M12.63,24.53c-.22,0-.22.26-.27.44s0,.23.17.19.4-.12.41-.3a.32.32,0,0,0-.31-.32" transform="translate(-0.17)" fill="#fff"/>
        <path d="M4.09,51.41a.18.18,0,0,0-.07.05s0,.1,0,.13a.52.52,0,0,1,.09.71c0,.08,0,.14,0,.18a.16.16,0,0,0,.19-.06.24.24,0,0,0,0-.26.39.39,0,0,1,0-.3c.14-.27,0-.44-.29-.45" transform="translate(-0.17)" fill="#fff"/>
        <path d="M68.12,65.86a.17.17,0,0,0,.1,0l.86-.45a2.6,2.6,0,0,0,.74-.38,1.13,1.13,0,0,1,.51-.19.63.63,0,0,0,.45-.47c-.35.2-.71.38-1.08.55a1.64,1.64,0,0,0-.68.38c-.15,0-.32.1-.42-.1a.14.14,0,0,0-.14,0c-.09,0,0,.1,0,.13s0,.18-.08.25-.26.07-.32.2l-.68.16,0,.09a1.86,1.86,0,0,0,.69-.15" transform="translate(-0.17)" fill="#fff"/>
        <path d="M4.69,42.57c.2-.26.08-.54.06-.79,0-.09,0-.22-.12-.26a.12.12,0,0,0-.1,0,.29.29,0,0,0,0,.32c.06.08.12.17.06.26s0,.27.11.42" transform="translate(-0.17)" fill="#fff"/>
        <path d="M57.42,68.81a.49.49,0,0,1,.36.2c.23.11.24-.1.3-.21-.12-.32-.28-.35-.68-.1,0,0,0,.08,0,.11" transform="translate(-0.17)" fill="#fff"/>
        <path d="M6.61,35c.08,0,.09-.09.1-.16s.06-.37.1-.58c0,0,0-.1,0-.13s-.13,0-.17.1a2.07,2.07,0,0,0-.13.61c0,.08.07.16.15.17" transform="translate(-0.17)" fill="#fff"/>
        <path d="M19.26,17.4h0a.65.65,0,0,0,.39-.42c0-.11-.1-.18-.17-.15a.55.55,0,0,0-.32.45c0,.05,0,.13.07.13" transform="translate(-0.17)" fill="#fff"/>
        <path d="M4.47,37a1.12,1.12,0,0,1-.18.47c-.11.63-.23,1.25-.34,1.87l.11,0a1.07,1.07,0,0,0,.28-.68,4.14,4.14,0,0,1,.19-1,.37.37,0,0,0,0-.23c0-.32.09-.64.14-1a.71.71,0,0,0-.24.53" transform="translate(-0.17)" fill="#fff"/>
        <path d="M73.51,68.53s-.1,0-.11,0a2.8,2.8,0,0,0-.27.4c0,.05,0,.17.06.2s.12,0,.17-.1a2.06,2.06,0,0,0,.21-.48s0,0-.06,0" transform="translate(-0.17)" fill="#fff"/>
        <path d="M37.51,85.83c-.15,0-.38-.17-.43,0s.2.18.35.24a.19.19,0,0,1,.18,0s.13,0,.13-.06-.13-.16-.23-.19" transform="translate(-0.17)" fill="#fff"/>
        <path d="M55.87,82.6a.23.23,0,0,0,.1.31h0c.1-.14.51,0,.36-.34s-.31,0-.47,0" transform="translate(-0.17)" fill="#fff"/>
        <path d="M70.13,65.65a.6.6,0,0,0,.65-.42c-.35-.06-.45.24-.65.42" transform="translate(-0.17)" fill="#fff"/>
        <path d="M4.38,61.79a.94.94,0,0,1-.28-.4.08.08,0,0,0-.1-.06s-.1,0-.06.1.15.35.24.53a.12.12,0,0,0,.16,0h0a.14.14,0,0,0,.07-.16.12.12,0,0,0,0-.05" transform="translate(-0.17)" fill="#fff"/>
        <path d="M73.43,69.28a1,1,0,0,0-.46.3s0,.14.07.16.5-.28.5-.39a.07.07,0,0,0-.1-.07" transform="translate(-0.17)" fill="#fff"/>
        <path d="M4.22,42.75a1,1,0,0,1,.08-.5.3.3,0,0,0,0-.23c0-.09-.06-.19,0-.26s0-.09,0-.13,0-.28,0-.35-.15.15-.3.11-.15,0-.23,0-.15-.15-.23,0a.44.44,0,0,0,0,.5c.08.09.44.1.09.32-.1,0-.12.1,0,.18a2.59,2.59,0,0,1,.09.68.18.18,0,0,0,.16.2h.05c.15,0,0-.15,0-.21s0-.21.08-.3a.13.13,0,0,0,0-.09.32.32,0,0,0,.21,0M4,42.62s-.09-.06-.13-.1h0a.18.18,0,0,0,.14,0,.61.61,0,0,0,0,.13" transform="translate(-0.17)" fill="#fff"/>
        <path d="M68.11,68.76h0" transform="translate(-0.17)" fill="#fff"/>
        <path d="M68.29,68.52c.08,0,.2-.11.13-.2s-.2,0-.28.05l-.09.08c-.06.06-.22,0-.18.16a.22.22,0,0,0,.24.15.48.48,0,0,1,.18-.24" transform="translate(-0.17)" fill="#fff"/>
        <path d="M2,43.87c-.1,0-.18,0-.17.16s.07.12,0,.2-.08.18.06.19.21,0,.19-.17a.36.36,0,0,1,0-.2c0-.1,0-.18-.13-.17" transform="translate(-0.17)" fill="#fff"/>
        <path d="M13.77,19.64c.49.07.71-.32,1-.6h.12c.12,0,.28,0,.2.2a.87.87,0,0,0-.21.67c.18-.24.45-.38.63-.6s.33-.2.24-.44l-.06-.32a7.14,7.14,0,0,0,.82-.63l-.25,0a.35.35,0,0,0-.4-.07.24.24,0,0,1-.29,0c-.15-.15-.29-.06-.43,0S15,17.94,15,18c.13.23-.07.33-.16.47s-.24.11-.3.24l-.29.25c0,.1.18,0,.16.12a.18.18,0,0,1-.21.15h0a.46.46,0,0,0-.41.15c-.07.07-.2.15,0,.25" transform="translate(-0.17)" fill="#fff"/>
        <path d="M13.28,23.21c-.26.12-.24.42-.4.61,0,0,0,.09,0,.14s.11,0,.14,0l.34-.36a.43.43,0,0,1,0-.05s0,0,0,.05,0-.22.06-.32a.46.46,0,0,0,.13-.47.07.07,0,0,0-.09,0h0a.57.57,0,0,0-.19.46" transform="translate(-0.17)" fill="#fff"/>
        <path d="M16.38,20.52a.1.1,0,0,0,.13,0,1.31,1.31,0,0,0,.29-.56c-.34,0-.31.35-.45.52,0,0,0,.07,0,.08" transform="translate(-0.17)" fill="#fff"/>
        <path d="M52.72,84.91c0,.07,0,.15.05.19a.12.12,0,0,0,.14-.06v0c0-.17.24-.2.27-.42-.21.07-.39.11-.46.31" transform="translate(-0.17)" fill="#fff"/>
        <path d="M8.69,45.57A1.39,1.39,0,0,0,8.78,45a1.22,1.22,0,0,0-.3.47.12.12,0,0,0,0,.17h0a.11.11,0,0,0,.14,0,.07.07,0,0,0,0-.06" transform="translate(-0.17)" fill="#fff"/>
        <path d="M7.84,35.7c.17,0,.14-.22.16-.36s0-.27-.13-.25-.06.2-.11.31,0,.3.08.3" transform="translate(-0.17)" fill="#fff"/>
        <path d="M17.2,19.46a.54.54,0,0,0,.3-.31c0-.12-.1-.1-.16-.1a.24.24,0,0,0-.26.27c0,.08.06.17.12.14" transform="translate(-0.17)" fill="#fff"/>
        <path d="M9.59,28.45c-.32.18-.39.31-.33.63a1.89,1.89,0,0,1,.2-.27.49.49,0,0,0,.13-.36" transform="translate(-0.17)" fill="#fff"/>
        <path d="M7.45,40.46c-.1,0-.11.07-.12.15a.57.57,0,0,0,.18.44.7.7,0,0,0,.06-.45c0-.07,0-.14-.12-.14" transform="translate(-0.17)" fill="#fff"/>
        <path d="M69.29,66.78s0,.08,0,.1a.81.81,0,0,0,.45-.25.09.09,0,0,0-.08-.1h0c-.2,0-.3.13-.41.26" transform="translate(-0.17)" fill="#fff"/>
        <path d="M16.09,19.72a.2.2,0,0,0,.27.09c.23-.17-.19-.26-.06-.43-.12.1-.27.18-.21.34" transform="translate(-0.17)" fill="#fff"/>
        <path d="M23.24,81.05c-.07,0-.17,0-.22,0s0,.15.07.2.23.1.36,0-.07-.25-.21-.29" transform="translate(-0.17)" fill="#fff"/>
        <path d="M55.65,69.35h.77c.21,0,.27-.21.42-.29a.06.06,0,0,0,0-.09h0a.08.08,0,0,0-.12,0h0l-.37.2c-.25.09-.51-.1-.75.06,0,0-.14,0-.11.1s.09.06.16.06" transform="translate(-0.17)" fill="#fff"/>
        <path d="M23.33,44.69c-.12.11-.36,0-.41.24s.08.11.16.1a.43.43,0,0,0,.35-.27c0-.06-.07-.09-.1-.07" transform="translate(-0.17)" fill="#fff"/>
        <path d="M71.79,65.12c.16-.11.3-.23.45-.35a.85.85,0,0,0-.55.2s-.12.08-.06.15a.1.1,0,0,0,.16,0h0" transform="translate(-0.17)" fill="#fff"/>
        <path d="M9,31c.07.05.11,0,.14-.06a.55.55,0,0,0,0-.45l-.23.34c-.06.09,0,.14.05.17" transform="translate(-0.17)" fill="#fff"/>
        <path d="M8.26,41c.14,0,.15-.14.17-.25s0-.14-.13-.16-.17.08-.17.21,0,.2.13.2" transform="translate(-0.17)" fill="#fff"/>
        <path d="M18.59,17.47c.16,0,.21-.15.25-.3s0-.12-.11-.1-.17.22-.25.33.05.08.11.07" transform="translate(-0.17)" fill="#fff"/>
        <path d="M7.59,38.42s0,.19.08.18.16-.15.15-.27,0-.16-.1-.15-.13.12-.13.24" transform="translate(-0.17)" fill="#fff"/>
        <path d="M53.08,69.87l.49-.18.32-.07c.09,0,.22,0,.2-.11s-.14-.12-.22-.1a2.35,2.35,0,0,1-.54.1s0,0,0,0-.36,0-.24.3" transform="translate(-0.17)" fill="#fff"/>
        <path d="M73.37,67.37l-.44.42c-.22.1-.34.31-.51.47s-.08.15.07.15A3.1,3.1,0,0,0,73,68c.12-.18.42-.24.38-.58" transform="translate(-0.17)" fill="#fff"/>
        <path d="M70.45,68.18a.21.21,0,0,0-.21.08.07.07,0,0,0,0,.11l0,0c.08.07.14.15.24.17s.09,0,.09-.07,0-.09-.1-.1.08-.17,0-.21" transform="translate(-0.17)" fill="#fff"/>
        <path d="M2.65,32c.12,0,.08-.19.14-.27s0-.16-.09-.15-.15.13-.15.23,0,.2.1.19" transform="translate(-0.17)" fill="#fff"/>
        <path d="M7.82,50.61c.09,0,.1-.08.12-.14a.21.21,0,0,0-.14-.22c-.11,0-.09.09-.1.14a.18.18,0,0,0,.12.22h0" transform="translate(-0.17)" fill="#fff"/>
        <path d="M16.47,18.79c.16.08.28.11.38,0a.08.08,0,0,0,0-.12h0a.24.24,0,0,0-.33.12.05.05,0,0,0,0,0" transform="translate(-0.17)" fill="#fff"/>
        <path d="M72.06,68.52c0,.23,0,.26.32.17,0-.22-.15-.22-.32-.17" transform="translate(-0.17)" fill="#fff"/>
        <path d="M5.53,42c0-.15,0-.33-.21-.3s0,.19,0,.28.16.15.25,0" transform="translate(-0.17)" fill="#fff"/>
        <path d="M16.5,18.36c.08,0,.12,0,.16-.06s.16-.11.15-.22a.13.13,0,0,0-.09-.07c-.13,0-.13.11-.15.19s-.1.08-.07.16" transform="translate(-0.17)" fill="#fff"/>
        <path d="M2.91,41.17c0,.06,0,.17.1.16s.08-.11.08-.18V40.7c0-.29,0-.58,0-.87a.43.43,0,0,0-.32-.41c-.23-.07-.11.18-.18.26a.52.52,0,0,1-.11.1H2.24c-.07-.23.19-.4.11-.62l.13-.29a1.33,1.33,0,0,1,.18-.9l0-.06a.45.45,0,0,0,.11-.17,1.1,1.1,0,0,1,.06-.26A.68.68,0,0,1,3,37.15c0,.11-.07.21-.11.32a1.22,1.22,0,0,1-.06.26.49.49,0,0,0,0,.24c0,.29.1.58-.06.85-.07.1-.06.17,0,.23a.19.19,0,0,0,.26,0v0a.6.6,0,0,0,.08-.29,3.19,3.19,0,0,1,.5-1.49.1.1,0,0,1,.09-.07c.28,0,.3-.27.34-.46a5.17,5.17,0,0,1,.28-1.16c.1-.23.3-.47.09-.77-.07-.09,0-.23.11-.33l.18-.25c.27-.06.25-.31.32-.5s.13-.43.23-.63a1.84,1.84,0,0,0,.34-1.2.25.25,0,0,1,.09-.19c.39-.21.35-.57.34-.93,0-.06,0-.18.14-.12s.1-.07.12-.13a2.57,2.57,0,0,0,.76-1.08c.08-.19.16-.3.39-.3A.54.54,0,0,0,8,28.51a.41.41,0,0,0-.05-.19c-.08-.14,0-.17.08-.23a.38.38,0,0,0,.25-.49.54.54,0,0,0,0-.11.65.65,0,0,1,.14-.72,5.62,5.62,0,0,0,.74-.8,16.63,16.63,0,0,1,1-1.4c.07-.05.16-.09.18-.17a0,0,0,0,0,0,0,1.4,1.4,0,0,0,.55-.87.43.43,0,0,0,.14-.16,2.5,2.5,0,0,1,.67-.93c.12-.12.27-.22.31-.4a.69.69,0,0,1,.57-.5l.87-.53c-.1-.14-.4,0-.27-.28.08-.14.08-.31.21-.43s.21-.12.15-.24-.2,0-.3,0-.19.06-.11.2,0,.22,0,.32-.3.12-.33.24c-.1.35-.4.38-.67.49s-.68.17-.84.54c-.13.17-.4.11-.51.32l-.58.6a7.86,7.86,0,0,0-1.24,1.51.66.66,0,0,0-.24.42c.21,0,.26-.18.38-.29s.34-.41.6-.51l.16,0h0a4.2,4.2,0,0,0-.43.74,1.22,1.22,0,0,1-.28.54l-.09.14a.34.34,0,0,1-.3-.18c0-.08-.15-.05-.23,0l-.05.08a1.39,1.39,0,0,0-.63.68c-.22.1-.27.35-.43.5.08.23.16,0,.24,0l.14-.05,0,0a.11.11,0,0,1,0,.11c-.18.34-.15.74-.31,1.09,0,.1-.1.21-.21.17-.3-.13-.35.07-.42.26l-.12.25c-.19,0-.35-.13-.22-.23.28-.23.31-.6.58-.82a.46.46,0,0,0,.14-.56c-.38.37-.57.88-.93,1.26l-.23.19c-.18,0-.24.15-.28.3a.77.77,0,0,0-.1-.25c0-.22.26-.31.25-.53-.06,0-.15,0-.19,0-.15.25-.37.44-.53.67s.1.22.15.34.11.18.23.06a.69.69,0,0,0,.16-.18c0,.17,0,.33-.08.49l-.06.2c-.17.08-.3-.18-.41-.09a5.9,5.9,0,0,1-.74.68.11.11,0,0,0,0,.11c.18.18.09.32,0,.47a.24.24,0,0,0,0,.29c.07.1.15,0,.24,0s.23.07.2.12c-.14.21,0,.46-.16.67a2,2,0,0,0-.24.81c-.19.25-.33.26-.51,0s-.18-.1-.27,0-.18.37-.35.49a.77.77,0,0,0-.37.87c0,.27-.08.5-.41.54,0,0-.06.1-.09.14a.55.55,0,0,1-.24.48c-.11.22-.33.38-.31.68s-.18.2-.29.12-.23,0-.37,0c-.32.15-.19.4-.2.63s0,.25.13.28.12-.11.17-.18.25-.18.4,0a1.05,1.05,0,0,0,.48.35c.14,0,.1-.19.12-.3a.12.12,0,0,1,.11-.1c.07,0,.07,0,.08.1a5.4,5.4,0,0,1,0,1.27c-.09.51-.11,1-.15,1.53a.76.76,0,0,1-.12.42c0,.07-.1.16,0,.21L2,40.09a.59.59,0,0,1-.2.33c-.1.06-.18.2-.3.15s-.17-.21-.16-.36-.14,0-.15.09,0,.16,0,.23-.11.17,0,.28,0,.3-.13.4-.1.06-.09.13-.15.27-.28.13-.16-.06-.28,0c-.3.15,0,.32,0,.47a.28.28,0,0,0,0,.09c0,.17,0,.45.17.44s0-.27.07-.41a.54.54,0,0,0,.2-.28c0-.13.16-.11.27-.08-.08.27.19.2.29.3a.45.45,0,0,1-.13.36c-.14.17-.15.31.09.47s.44,0,.65.05c0,.16-.26.34,0,.49C2,43.22,2,43,2.3,43L2,42.81a.28.28,0,0,1-.06-.25c.16,0,.38-.06.34-.22s.13-.28.22-.4a.57.57,0,0,0,.15-.48.66.66,0,0,1,0-.34c0-.1.1-.16.2-.07l0,.12M9.85,23.54a.27.27,0,0,1,.09-.12c.29-.2.46-.53.75-.74a.46.46,0,0,0,.21-.41.28.28,0,0,0,.28-.32c.05,0,.12,0,.17.06-.2.49-.64.83-.85,1.31a.54.54,0,0,0-.46.2c-.07.08-.15.13-.22.08l0-.05m-2,2.5a1.54,1.54,0,0,0,.51-.17.22.22,0,0,0,0-.08.18.18,0,0,1-.1.16.43.43,0,0,0-.22.12H7.92a.18.18,0,0,0-.09,0l0,0a.17.17,0,0,0,0-.12M4.86,31.7a2.12,2.12,0,0,1,.35-.88.94.94,0,0,0,.13-.4c.18.18.23.13.49-.12,0,0,0,0,.06,0h0c-.1.1-.08.22.07.4-.1.27-.16.57-.46.7-.08-.06,0-.2-.07-.22s-.17.08-.2.16a1.17,1.17,0,0,0-.13.44.76.76,0,0,1-.31.54.17.17,0,0,1-.06-.06.51.51,0,0,1,.12-.56M3.69,34.13a1.26,1.26,0,0,0,.52-.55c0,.19,0,.35.13.46s0,.13-.06.2a1.52,1.52,0,0,1-.45.16c-.09,0-.14,0-.19,0a.15.15,0,0,1,0-.2h0m-.5,1.4c0-.1,0-.27.13-.28s.1.14.13.2,0,.25-.13.27-.14-.1-.13-.2m0,.65c.09,0,.11,0,.1.1a.29.29,0,0,1-.11.27c-.08,0-.08-.08-.09-.14s0-.19.1-.23m-.82-.52c0-.21-.08-.36.08-.47s.1,0,.12.06,0,.26-.2.41" transform="translate(-0.17)" fill="#fff"/>
        <path d="M67.15,75.88c-.1.15,0,.2.12.18s.13-.11.2-.17c-.1-.27-.21,0-.32,0" transform="translate(-0.17)" fill="#fff"/>
        <path d="M5.4,54.81c.07,0,.07-.07.08-.11s0-.15-.09-.22,0-.06,0-.11c-.3.1,0,.24,0,.37a.16.16,0,0,0,.09.07" transform="translate(-0.17)" fill="#fff"/>
        <path d="M61.26,80.31c-.16,0-.18.18-.24.29a.3.3,0,0,0,0,.1.43.43,0,0,0,.32-.34.1.1,0,0,0-.06,0" transform="translate(-0.17)" fill="#fff"/>
        <path d="M12.35,25.43c0-.07,0-.14-.13-.14s-.09.09-.09.15,0,.16.1.15.11-.08.12-.16" transform="translate(-0.17)" fill="#fff"/>
        <path d="M45.32,85.58c-.07,0-.18,0-.19.1s.1.11.18.13.16,0,.17-.13-.08-.1-.16-.1" transform="translate(-0.17)" fill="#fff"/>
        <path d="M14.52,20.38c-.09,0-.1.09-.1.17s0,.14.12.13a.13.13,0,0,0,.11-.15h0c0-.08-.05-.15-.13-.14" transform="translate(-0.17)" fill="#fff"/>
        <path d="M15.12,22.37c-.17.07,0,.25-.16.38.2-.05.27-.15.27-.3a.07.07,0,0,0-.08-.08h0" transform="translate(-0.17)" fill="#fff"/>
        <path d="M71.64,66.71s0,0,0,.09c.11-.14.32-.1.38-.29,0,0,0-.05-.05-.05a.59.59,0,0,0-.35.25" transform="translate(-0.17)" fill="#fff"/>
        <path d="M22.11,44.81c-.15.06-.17.2-.23.39.2-.1.31-.16.31-.33,0,0-.06-.06-.08-.06" transform="translate(-0.17)" fill="#fff"/>
        <path d="M72,63.9c.13,0,.2-.11.28-.29-.18,0-.31,0-.35.18s0,.12.07.11" transform="translate(-0.17)" fill="#fff"/>
        <path d="M57.19,82.25c-.16-.07-.2.11-.38.16.2.09.32.09.41,0a.07.07,0,0,0,0-.1s0,0,0,0" transform="translate(-0.17)" fill="#fff"/>
        <path d="M17,77.32c-.12,0-.08-.15-.16-.19s-.3-.28-.44-.44L14.72,75v-.09c0-.12,0-.22-.16-.2s-.1.16-.06.22,0,.17-.09.22c-.09.27-.07.29.31.28a5.64,5.64,0,0,0,1.48,1.36c.25.09.26.41.49.52h.06c.13,0,.17.23.32.23s.11-.22-.08-.25" transform="translate(-0.17)" fill="#fff"/>
        <path d="M28.8,84.22h-.06v.1l.06,0c.1,0,.18.15.31.08a.08.08,0,0,0,0-.08.4.4,0,0,0-.33-.13" transform="translate(-0.17)" fill="#fff"/>
        <path d="M7.84,37.92c.07,0,.1-.07.12-.13s0-.13,0-.18-.13,0-.17.06,0,.21.07.25" transform="translate(-0.17)" fill="#fff"/>
        <path d="M23.17,27.9c0,.05,0,.1,0,.1s.14-.08.17-.15,0-.1-.08-.11a.16.16,0,0,0-.14.16" transform="translate(-0.17)" fill="#fff"/>
        <path d="M11.27,56.22h0a.27.27,0,0,1-.13,0h0a.11.11,0,0,0,.09.07s0,0,.06,0" transform="translate(-0.17)" fill="#fff"/>
        <path d="M19.42,79.12c-.09,0-.26,0-.26,0,.08-.3-.55-.4-.2-.75-.11-.19,0-.48-.23-.55a3.25,3.25,0,0,1-.61-.17c-.08,0-.16,0-.13.09s-.08.19-.19.23-.27.13-.1.29a10.27,10.27,0,0,0,1.2,1.08.52.52,0,0,0,.56.1.18.18,0,0,0,.12-.17c0-.12-.07-.13-.16-.13" transform="translate(-0.17)" fill="#fff"/>
        <path d="M13.37,73.22c-.09-.15-.3-.18-.34-.37a.4.4,0,0,1,0-.15c.17-.36.14-.49-.19-.72,0,0-.11-.12-.18-.06s0,.13.05.18a3.71,3.71,0,0,0,.23.32c.13.18,0,.18-.12.19a1.06,1.06,0,0,1-.36-.4c-.1-.13-.2-.17-.32,0s-.09.17,0,.24.18.1.24.19c.4.13.39.57.61.83.05,0,0,.11-.12.13s-.14.11,0,.19l.23.18c.06.17.36.1.35.35a.63.63,0,0,0,.26.3.82.82,0,0,1,.44,0c.22,0,.14-.18.07-.27-.28-.37-.57-.73-.86-1.1" transform="translate(-0.17)" fill="#fff"/>
        <path d="M13.58,71.48a.82.82,0,0,0,.26.32c.29-.08,0-.3.12-.43-.12.08-.3-.07-.38.11" transform="translate(-0.17)" fill="#fff"/>
        <path d="M14.76,74c0-.09,0-.16-.17-.15s-.11,0-.11.1.1.14.19.16.09-.05.09-.11" transform="translate(-0.17)" fill="#fff"/>
        <path d="M13.27,71.87s.06-.08,0-.1a.36.36,0,0,0-.36,0c.12.09.22.15.34.09" transform="translate(-0.17)" fill="#fff"/>
        <path d="M11.83,72.25c.09.09.15,0,.21-.08L11.87,72c-.1.07-.13.17,0,.26" transform="translate(-0.17)" fill="#fff"/>
        <path d="M31.07,81.87c-.06,0-.13,0-.1.09s0,.17.15.16a.14.14,0,0,0,.11-.16c0-.1-.09-.08-.15-.09" transform="translate(-0.17)" fill="#fff"/>
        <path d="M19.66,76.28l-.32-.3a.53.53,0,0,0-.45-.13c.2.23.35.42.52.59l.19.06.15.06a.18.18,0,0,0,.07,0c.1-.12-.09-.16-.17-.23" transform="translate(-0.17)" fill="#fff"/>
        <path d="M20.52,19.15h-.07l0,0,0,.1a.1.1,0,0,0,.11-.09v0" transform="translate(-0.17)" fill="#fff"/>
        <path d="M18.13,74.88h0a.56.56,0,0,0,0-.12s0,.08,0,.13" transform="translate(-0.17)" fill="#fff"/>
        <path d="M22.6,77.42l-.25,0,.19.12a.16.16,0,0,1,.06-.08" transform="translate(-0.17)" fill="#fff"/>
        <path d="M24.19,81.39a.52.52,0,0,0-.11-.1,1.87,1.87,0,0,0-.38-.46.11.11,0,0,1-.08,0,1.09,1.09,0,0,1-.24-.07c.13.23.4.32.54.54l-.09.12.08.12.22.06a.14.14,0,0,0,.17-.09c.07-.13-.07-.08-.11-.12" transform="translate(-0.17)" fill="#fff"/>
        <path d="M72.74,69.31c-.1-.06-.17,0-.22.06a.24.24,0,0,1-.15.13c-.14-.12-.24,0-.36.06h0V69.5a.59.59,0,0,0,.1-.17c0-.09,0-.2-.07-.26s-.23.05-.31-.07.09-.48.25-.57.37,0,.39-.26a.46.46,0,0,1,.26-.41c.1,0,.21-.08.17-.17s0-.25.16-.33a.7.7,0,0,0,.19-.15c.05-.09.22-.18.11-.28s-.18.06-.27.1c-.28.15-.42.5-.8.49-.06,0,0,.1,0,.16a.57.57,0,0,1-.52.24c-.08,0-.22,0-.21.07,0,.3-.27.29-.39.43a.62.62,0,0,0-.45.35c-.15.2-.45.19-.59.32-.33.33-.77.48-1.08.82-.24,0-.43.24-.7.23a0,0,0,0,0,0,0s0,0,0,0,.2-.12.22-.22a.26.26,0,0,0,0-.15h0c-.23-.14-.17-.28,0-.41a1.08,1.08,0,0,1,.24-.12l.2-.09,0,0,.25-.07c.1,0,.2,0,.25-.13s.15-.27.3-.34c0-.1-.08-.11-.15-.13l.1-.07c.14-.25.48-.25.62-.5s.4-.23.55-.47c-.31,0-.42.25-.62.34a1.62,1.62,0,0,0-.65.45.34.34,0,0,1-.27.12c-.09,0-.22,0-.19-.15s0-.15-.11-.15a.12.12,0,0,0-.11,0,.15.15,0,0,0,0,.2l.09.12c-.27.19-.47.5-.85.5l-.22.24c-.32.3-.45.3-.67,0,.24,0,.52-.07.37-.45a.21.21,0,0,1,.14-.24c.3-.13.32-.4.36-.67.09,0,.18,0,.25-.06a.22.22,0,0,0,.18-.18c-.06-.08,0-.23-.12-.26l-.06,0a.23.23,0,0,0,.24,0l.5-.43c.11-.1,0-.21,0-.31.24,0,.3-.23.5-.26s.23,0,.17-.14-.18-.21-.28-.11-.4.1-.57.2a4.86,4.86,0,0,1-.81.52c-.14,0-.16.19-.25.28s-.21.22,0,.37,0,.25.16.32l.06.11a1.47,1.47,0,0,0-.65.45c-.1,0-.16,0-.18-.09a.93.93,0,0,0-.12-.41.52.52,0,0,0-.32.16.45.45,0,0,1-.53,0c-.13-.16.14-.18.21-.29l.18-.21s.12,0,.06-.09a.44.44,0,0,0-.11-.1c-.16.1-.4,0-.53.21a1.7,1.7,0,0,1-.79.43.13.13,0,0,1-.18-.06h0a.12.12,0,0,1,0-.17h0a.53.53,0,0,0,.24-.23c.18-.2.32-.43.6-.5.07,0,.17,0,.16-.1a.17.17,0,0,0-.19-.14h0l-.54.07c-.29.15-.63,0-.93.16-.08,0-.21,0-.16.16s.16,0,.22,0a.92.92,0,0,1,.81,0l-.08.18c-.12.08-.26.23-.35.2-.34-.07-.54.15-.78.27a1.33,1.33,0,0,1-.42.19c-.4,0-.7.32-1.09.42-.22,0-.45,0-.67.1a11.59,11.59,0,0,0-2.51,1.14.51.51,0,0,1-.32.1,1.32,1.32,0,0,0-.86.25.48.48,0,0,1-.29.09,2.6,2.6,0,0,0-1.13.26,2.58,2.58,0,0,1-1.4.14,3.34,3.34,0,0,0-1.66.09,1.84,1.84,0,0,1-.4.19,8.77,8.77,0,0,0-.88,0,6,6,0,0,1-.61.07c-.49.06-.88-.32-1.36-.29s-.66-.27-1-.23a1.12,1.12,0,0,1-1-.25.16.16,0,0,0-.22,0,.18.18,0,0,0,0,.09c0,.26-.14.17-.25.08a.55.55,0,0,0-.25-.1,3.53,3.53,0,0,1-1.31-.38,2.33,2.33,0,0,0-.82-.27A5.38,5.38,0,0,1,44.42,69c-.38-.14-.7-.4-1.1-.53-.2-.07-.28-.43-.14-.48.32-.1.13-.23,0-.31s-.44-.26-.66-.4c-.76-.5-1.53-1-2.27-1.53s-1.4-.89-2.1-1.34a14.43,14.43,0,0,0-1.22-.82,10.1,10.1,0,0,1-2.18-1.15,1.11,1.11,0,0,0-.43-.28c-.64-.17-1-.78-1.58-1a5,5,0,0,1-.86-.61A11,11,0,0,1,30.34,59,8.61,8.61,0,0,0,29,57.77c-.56-.38-1.15-.7-1.73-1A6,6,0,0,1,25.74,55c-.49-.61-.88-1.31-1.4-1.9a2.79,2.79,0,0,1-.56-.72A18.4,18.4,0,0,1,22.92,50c0-.14-.14-.32,0-.47.4-.45.59-1.05,1-1.47a2.33,2.33,0,0,0,.52-.83c-.16,0-.29.11-.42,0s-.13,0-.15.09c-.06.42-.47.63-.63,1,0,.08-.13.18-.22.1a.18.18,0,0,1,0-.25l0,0a1.31,1.31,0,0,0,.32-.48,3.28,3.28,0,0,1,.5-.87c.11-.13.29-.25.31-.44a1.83,1.83,0,0,1,.54-1c.08-.09,0-.23.14-.32a.2.2,0,0,0,0-.23.14.14,0,0,0-.1,0,.23.23,0,0,0-.12.23.36.36,0,0,1-.06.25,1,1,0,0,0-.5.58,1.21,1.21,0,0,1-.43.54c-.37,0-.39,0-.25.36-.27.35-.49.74-.77,1.08-.11.13-.17.47-.24.46s-.12-.36-.23-.52a.15.15,0,0,1,0-.09c0-.15,0-.32.23-.2s.11,0,.14-.09-.15-.29-.11-.46l.19-.43.25-.23c.05,0,.08-.1,0-.15s-.11,0-.14,0-.21.2-.32.31h0l-.19.21a.6.6,0,0,0-.52-.33c-.1,0-.28,0-.14-.3s.27-.24.39-.36.08-.06.07-.12-.07,0-.12-.07l-.46-.13c0-.14.12-.23.1-.36a.34.34,0,0,1,.2-.38.17.17,0,0,1,.21-.1l0,0c.16,0,.18,0,.14-.11s-.08-.22.11-.27a.2.2,0,0,0,.16-.23v0c-.11-.38-.11-.38.29-.35.12,0,.23-.06.29.11s.16.09.23,0c0-.32.22-.7.43-.74a2.24,2.24,0,0,0,.78-.33,2.32,2.32,0,0,0,.82-.91c0-.07.05-.15,0-.2s-.12,0-.18.05c-.3.23-.61.44-.92.65s-.42.1-.47-.18-.15-.16-.26-.11l-.76.3a.19.19,0,0,1-.25-.06.29.29,0,0,1,0-.09c-.09-.39-.06-.79-.12-1.17s.13-.62.1-.93a1.08,1.08,0,0,1,.26-.77.41.41,0,0,0,.06-.45.75.75,0,0,0-.32-.36c-.06-.05-.17-.09-.09-.19s.31-.55.6-.69a.59.59,0,0,0,.31-.31l.14-.12c.11,0,.19-.11.1-.23s-.17,0-.24,0A.46.46,0,0,1,23,37a.56.56,0,0,0-.54.2s-.1.14-.17.06a.14.14,0,0,1,0-.2l0,0c.07,0,.16-.09.14-.18-.09-.51.37-.69.61-1,.08-.08.3.06.28-.15s-.21-.11-.33-.12a.16.16,0,0,0-.12,0L22.3,36c-.07.05-.07.2-.22.13-.17-.25-.13-.42.18-.58.12-.06.19-.11.11-.25a.2.2,0,0,0-.32-.08.82.82,0,0,0-.37.69.85.85,0,0,1-.73.78c-.23,0-.34-.1-.31-.27a6.71,6.71,0,0,1,.09-1.1c0-.06,0-.13,0-.16s-.1,0-.13.07-.1.12-.17,0a.94.94,0,0,0-.65-.3c-.17,0-.23-.11-.15-.28s.23-.33.28-.53A3.74,3.74,0,0,1,20.29,33a.11.11,0,0,1,.14-.08c.07,0,.07.06.07.11a.24.24,0,0,0,.06.17s.22.12,0,.12c-.05,0-.1,0-.11.07a1.08,1.08,0,0,0-.12.61.39.39,0,0,1,0,.26c-.1.17-.16.35.07.43s.41.29.42-.15c0,0,.06-.08.08-.12s.1-.19,0-.25a.24.24,0,0,1-.18-.3v0c.05-.17.22-.07.32-.06s.19,0,.14-.14c-.15-.38.21-.63.24-1,0-.05.1-.06.16,0a1.18,1.18,0,0,1,.3,1c-.12.22.06.3.17.36s.13-.1.15-.19.15-.2.26-.07.31.08.38-.07.21-.2.37-.2c.35,0,.46-.11.49-.47a2,2,0,0,0-.09-.64.44.44,0,0,0-.5-.38.28.28,0,0,0-.13,0,.19.19,0,0,1-.25-.07c-.34-.35-.56-.35-.78,0,0,0,0,.12-.07.17s-.09.16-.18.13-.06-.13,0-.21A6.85,6.85,0,0,0,21.8,31c0-.17,0-.4.23-.5a.12.12,0,0,0,0-.16c-.08-.18,0-.37,0-.55,0,0,0-.05.07-.06.38-.14.39-.18.11-.48,0,0,0-.09-.05-.14s.05-.3.07-.45,0-.52.29-.67c.09,0,0-.13,0-.2a.41.41,0,0,0-.26-.24.69.69,0,0,0-.2,0l0,0,0,0a.34.34,0,0,1,.2,0h.12c.13-.06.2-.2.33-.26s.18.22.35.15a1.44,1.44,0,0,1,.74-.31c.12-.06.21,0,.25.1s.08.19.18.06a8.49,8.49,0,0,1,1.4-.29c.39-.1.59-.2.72-.62l.06-.1q.81-1.07,1.71-2a2,2,0,0,1,.38-.39c.45-.27.92-.51,1.38-.76a3.86,3.86,0,0,0,.75-.24,2,2,0,0,0,.87-.37l.19-.07-.41-.16a1.64,1.64,0,0,1-.73.18h-.16a.76.76,0,0,0-.15,0,1.6,1.6,0,0,1-1.59-1.59,1.52,1.52,0,0,1,.09-.51h0A3.2,3.2,0,0,1,27,19.16c-.23-.29-.45-.58-.65-.88-.05-.08-.11-.16-.16-.25a1.78,1.78,0,0,1-.64.1,4.16,4.16,0,0,1-1.21-.21l-1-.32a5.54,5.54,0,0,0-.58-.17h0a1.51,1.51,0,0,1-.3,0l-.17.21c-.31,0-.43.21-.58.41l-.13.2a.35.35,0,0,1-.23-.39.85.85,0,0,1,.41-.73h0L21.66,17a1,1,0,0,1-.18-.22c-.06,0-.12.07-.16.06-.32-.05-.35.17-.39.38a.51.51,0,0,1-.57.51c-.1,0-.14,0-.1.13s0,.14,0,.15-.12.14-.13.28,0,.25,0,.38a.47.47,0,0,1,.06-.15.17.17,0,0,1,.24,0v0a.26.26,0,0,1,.1.13v0c0-.08,0-.13.08-.14s0-.31.15-.27a.86.86,0,0,1,.48.27c.06.08.11.26,0,.3a.67.67,0,0,0-.27.23.75.75,0,0,1-.07.53c-.22.29-.58.11-.85,0s-.32-.36-.07-.4.16-.14.19-.28a.4.4,0,0,1,0-.15.4.4,0,0,1-.18.29c-.15.1-.22.16-.1.35s-.05.19-.17.21-.25.08-.29.15a1.56,1.56,0,0,1-.35.46h-.12c-.23.27-.36.61-.58.89s-.47-.11-.34-.28.36-.64.6-.91a4.61,4.61,0,0,0,.63-.84c.06-.11.18-.08.26,0l.26-.4c-.12-.12-.3,0-.45-.12.14-.22.21-.49.5-.58.1-.07,0-.21.13-.29s0-.14-.06-.18-.14,0-.18.06,0,.14-.08.18-.33.08-.4.25-.24.26-.43.12c-.05.13,0,.3-.13.35s-.38.16-.3.37-.11.38,0,.58-.28.68-.48.6-.27-.12-.37.07a.25.25,0,0,1-.2.06c-.29-.11-.35.12-.4.3s-.12.2-.15.32-.14.21-.27.09-.16-.1-.24,0a1.21,1.21,0,0,0-.22.32s.06.1.13,0,.14-.08.19,0,0,.14,0,.22c-.11.23-.37.42-.42.6-.11.38-.42.63-.53,1a4.63,4.63,0,0,1-.36.7c-.06.05-.15.07-.19.16s0,.13-.12.12-.05-.11-.06-.18,0-.25-.18-.17-.19.14-.27.25c-.19.28-.25.64-.56.84-.06,0-.06.15-.09.22-.11.24-.09.51-.2.74-.29.1-.59.29-.62.57a.88.88,0,0,1-.24.48c-.16.2-.45.37-.19.69.06.27-.15.4-.31.55a.21.21,0,0,0-.19.2.62.62,0,0,0-.19.14.34.34,0,0,0-.07-.29c0-.08-.12-.06-.17,0l-.43.26c-.35,0,0,.28-.17.38s-.11.27-.14.42-.19.37.13.44c.1,0,.08.11,0,.17a.6.6,0,0,1-.27.2.42.42,0,0,0-.3.51s0,0,0,0a.48.48,0,0,1,0,.37,16.23,16.23,0,0,0-.52,1.58c-.05.15-.1.25-.28.25s-.2.08-.23.26c-.07.5,0,1-.36,1.48-.09.11-.15.33.14.35.09,0,.2.1.15.14-.3.24-.12.49,0,.73S9,36,9,36.24a.17.17,0,0,1-.1.18c-.08,0-.12-.05-.18-.09S8.59,36,8.5,35.8a1,1,0,0,1,.06-.65s.07-.15,0-.18-.1.08-.14.14,0,.36-.13.5-.15.53-.13.8l-.07.22h0c0-.09-.06-.14-.13-.19s0-.19,0-.29,0-.2-.12-.21-.12.08-.15.15a.9.9,0,0,0,.18,1.15c.07,0,.14,0,.16,0l0,.26.06.07c0,.11.2.18.13.29-.18.27,0,.47.08.7A6.89,6.89,0,0,1,8.44,37c.07-.25.43,0,.38.19A6.89,6.89,0,0,0,8.67,39c0,.28-.39.13-.39-.09v0A.94.94,0,0,0,8,39c.21.27.12.6.19.91,0,.11,0,.2.16.14s.26.11.27.28,0,.49,0,.73a3.39,3.39,0,0,0,.11.71c.1.34,0,.75.35,1,.1.09.2,0,.31,0a.66.66,0,0,1,.23,0c.2.13.08.3.07.46l0,0h0a.28.28,0,0,0-.35-.11l-.08.06a.43.43,0,0,0-.06.56.36.36,0,0,0,.29,0,.28.28,0,0,0,0,.18c0,.3.21.12.32.18l.12.34a.14.14,0,0,1-.05.18h0c-.13,0-.11-.06-.12-.11-.07-.25-.29-.29-.49-.38s-.18.07-.15.15,0,.48.17.69l.2.12a.14.14,0,0,0-.19.08,3.29,3.29,0,0,1,.12,1.08.28.28,0,0,0,0,.15,5.25,5.25,0,0,1,.28,1.17c.12.5,0,1.06.33,1.52a.2.2,0,0,1,0,.11.72.72,0,0,0,.22.59.38.38,0,0,1,.09.31.58.58,0,0,1,0,.32c0,.1,0,.2.09.25s.29.15.33.32-.16.13-.24.18-.48.17-.54.33.23.35.3.56v0c.12.1.18.35.41.15s.15,0,.19.1a.3.3,0,0,1,.08.16.8.8,0,0,0-.08-.16c.06.2.16.41-.22.28-.14-.05-.28,0-.14.21a2.75,2.75,0,0,1,.17.45c-.17.17-.11.34,0,.52a3.17,3.17,0,0,0,.53.57s.1,0,.08.11-.1,0-.16,0l-.23-.07c-.16,0-.28.07-.2.23s.36.37.54.32.38,0,.44.27c-.15,0-.32-.12-.44.07s-.16.06-.24,0a.11.11,0,0,0-.16,0c-.07.06,0,.12,0,.18.14.3.4.13.6.15,0,.08,0,.15.13.08a.33.33,0,0,1,.23-.07c.14.16.13.27-.11.31a.39.39,0,0,0-.15.06l.06,0c.1.23.11.49.21.73,0,.07,0,.11-.09.13a8.69,8.69,0,0,1,.66.84c.08.13-.3.21-.37.1-.29-.47-.7-.84-1-1.29l-.18.05a0,0,0,0,1-.05,0c-.18-.3-.52-.5-.6-.84a7.35,7.35,0,0,0-.38-1,5.54,5.54,0,0,1-.44-1.54c-.09-.62-.38-1.17-.46-1.8A.72.72,0,0,1,9,51c.1-.12,0-.25,0-.38s0-.35-.17-.43,0-.21,0-.31l.05-.07L9,49.74a.18.18,0,0,0,.08-.24l0,0c-.1-.14-.14,0-.21.05a1.15,1.15,0,0,0-.4.24.78.78,0,0,1-.09-.6,7.18,7.18,0,0,0,.19-1,2.7,2.7,0,0,0-.11-1.23c0-.23-.11-.46.07-.68,0-.06,0-.22-.14-.12S8.21,46,8.14,46a2.09,2.09,0,0,0-.06-.79c0-.08-.14-.16,0-.23-.28-.13-.31-.11-.37.22s-.33.31-.61.24c0,.07,0,.1.05.12.24.2.45.41.28.77a.11.11,0,0,0,.05.1c.35.19.24.51.22.8l0,.09a.2.2,0,0,0,0,.11.35.35,0,0,0-.06-.14l-.08-.08c-.13,0-.13,0-.18.21a.93.93,0,0,0-.12.43.37.37,0,0,0-.06.32c.07.17-.08.09-.13.12s-.3,0-.3.19-.07.41.2.56a.45.45,0,0,1,.2.6.52.52,0,0,1-.19.2c-.13.08-.1.1-.05.21s.28.33.21.56-.09.24.07.25.15-.14.15-.25a1.46,1.46,0,0,1,0-.59,1.66,1.66,0,0,0,.1-1.16.7.7,0,0,1,.07-.47c0-.08,0-.18.15-.16s0,.12,0,.19c0,.49,0,1,0,1.48,0,.07,0,.16.07.18A.15.15,0,0,0,8,49.94a1.13,1.13,0,0,0,0-.18.52.52,0,0,1,.09-.29h0c.12.26,0,.63.36.79l0,.13a.74.74,0,0,0,0,.21c.16.32.07.7.26,1a.25.25,0,0,1-.06.31.21.21,0,0,0,0,.32,2.68,2.68,0,0,1,.46,1c.08.31-.12.31-.27.36s-.3,0-.28-.23a.48.48,0,0,0-.05-.14c0-.1,0-.19.07-.25s.15-.17,0-.21-.24-.31-.35-.47-.1-.23-.25-.25c-.2-.19-.22,0-.3.13a1.62,1.62,0,0,0,0,.22,1.63,1.63,0,0,1,0,.66.35.35,0,0,1-.21.35c-.15,0-.13-.16-.2-.23S7.23,52.92,7,53a.79.79,0,0,0-.42.75c.08.32.08.68.36.92.09.07.11.12,0,.24a.78.78,0,0,0-.09.63,6,6,0,0,1,.15,1.19.16.16,0,0,1-.13.18c-.13,0-.12-.09-.14-.15s0-.13,0-.18a4.07,4.07,0,0,0-.43-1.44,1.4,1.4,0,0,0-.25-1c.08-.22.32-.42,0-.65a.16.16,0,0,1,0-.15c.2-.35,0-.71,0-1.08s0-.85,0-1.28a1.14,1.14,0,0,0-.06-.45A.1.1,0,0,0,6,50.42a.12.12,0,0,0-.09.11h0a7.87,7.87,0,0,0,0,1,6,6,0,0,1,.07,1c0,.24-.17.36-.37.26s-.17,0-.17.13a1.22,1.22,0,0,0,0,.57c.1.22-.27.23-.18.42s.36.13.37.37l.06.07h0c.05.07.12.07.21,0s.13,0,.12,0c0,.26.26.42.22.68h0c-.11.1-.18.24-.36.24s-.15.1-.19.19l0,0-.24-.16a.24.24,0,0,1,0-.12,2.69,2.69,0,0,0-.16-.45c-.08-.17,0-.4-.2-.53H4.93a.3.3,0,0,1,0-.4s.08-.12,0-.16-.08-.22,0-.35.09-.34,0-.43-.23.09-.33.19l-.17.21c-.07.22-.06.4.18.51a.24.24,0,0,1,.11.13.08.08,0,0,0-.07,0h0a.81.81,0,0,1-.28-.24c0-.06,0-.11,0-.16-.34,0-.38,0-.26.29s.18.59,0,.89c-.24.09-.28.07-.24-.19,0-.1,0-.14-.08-.16s-.09.07-.1.12,0,.13,0,.19-.07.2-.19.07a1.45,1.45,0,0,0-.18-.17c-.1-.09-.25,0-.23.06s-.13.51,0,.73a1,1,0,0,1,.11.63c0,.14.06.17.12.24.05-.17.38,0,.34-.24a.59.59,0,0,1,.18-.6c.12-.1,0-.35.14-.36s0,.27.14.36.42.2.06.38c0,0,0,.1,0,.12-.19.14-.13.45-.36.56s-.13.2,0,.3.14.15.19.25.16.29.14.46a.1.1,0,0,0,.06.13c.1,0,.08,0,.11-.09s.15-.1.19,0a1.06,1.06,0,0,1,.12.55c-.06.45,0,.49.37.72A.12.12,0,0,1,5,59v0c-.13.32-.1.35.25.33a.32.32,0,0,1,.25,0c-.18.15-.12.36-.11.55a.24.24,0,0,1-.12.2c-.07.05-.11,0-.15-.06s-.54-.1-.58.12a1.24,1.24,0,0,0,.13.92c0,.06.14.11.17,0s.32-.22.29-.47a.22.22,0,0,1,.36-.2.36.36,0,0,1,.09.5.12.12,0,0,1-.05,0c-.09.08-.21.12-.27.24s-.12.23-.29.15-.08,0-.09.06.25.25.08.37-.11.23,0,.35l.37.44c.12.07.2,0,.3-.08a.18.18,0,0,1,.31.1,1.67,1.67,0,0,0,.08.2,4.79,4.79,0,0,0,1.36,1.51,2.67,2.67,0,0,1,.2.93.79.79,0,0,0,.45.8c.28.15.26.25,0,.39s-.3.28-.17.43.26.47.42.67a.5.5,0,0,1,0,.12c0,.13.06.18.17.18s.07.12.08.19.06.25.22.3a1.14,1.14,0,0,1,.5.26.57.57,0,0,0-.3.39.88.88,0,0,0,0,.16,1.53,1.53,0,0,0,.68.93.3.3,0,0,0,.16.08,2.84,2.84,0,0,1,.06.5s0,0,.07.06a2.54,2.54,0,0,0,.36.45c.14.1.25,0,.36-.06a.14.14,0,0,0,.07-.18h0c-.07-.12-.16-.07-.26,0a.15.15,0,0,1-.21-.11,1.12,1.12,0,0,1-.05-.13c.18,0,.22-.07.14-.22a1.12,1.12,0,0,0-.16-.22h0l.09,0a.3.3,0,0,1,.19.19c.06.25.25.32.46.37s.17,0,.19.08c.15.33.5.46.68.74s.37.3.69.15a.42.42,0,0,0,.26-.6l-.1-.09a.33.33,0,0,0,.27.09l.05,0a1.81,1.81,0,0,1,.57.06.12.12,0,0,0,.07-.18.2.2,0,0,1,0-.11l.07,0c.14.11.28.17.42,0a.17.17,0,0,0,0-.19c.1.09.09.25.2.33a.93.93,0,0,1,.68.38c-.23.13-.61,0-.62.4-.13-.16-.22-.09-.28.08l-.07.08c-.12,0-.3-.16-.36.05s.15.2.28.25l.14.06s.1,0,.12,0,0-.08-.1-.1l0,0,0,0c-.1-.25.17-.21.26-.31a.55.55,0,0,0,.14.37.55.55,0,0,1,0,.76.32.32,0,0,0,0,.44l0,0a3.47,3.47,0,0,0,.42.34,5.2,5.2,0,0,1,1,.56c.16.16.37,0,.46-.24-.06.18,0,.28.15.38s.44.36.46.67a.18.18,0,0,0,.13.16c.64.26.84,1,1.47,1.28.14.06.15.16,0,.26a.22.22,0,0,0-.09.3.13.13,0,0,0,.05.07c.33.28.58.68,1.06.71a.24.24,0,0,1,.22.18.88.88,0,0,0,.5.52.35.35,0,0,1,.22.27c0,.19.52.62.68.58a.78.78,0,0,1,.61.12,1,1,0,0,1,.49.2,3.14,3.14,0,0,0,.86.76.19.19,0,0,0,.19,0,1.72,1.72,0,0,1-.57-.43.61.61,0,0,1-.17-.48.42.42,0,0,1,0-.1.25.25,0,0,1,0-.12h0a2.47,2.47,0,0,1-.51-.46.2.2,0,0,1,0-.28c.08-.08.21,0,.27.06l.07.09,0,0a.12.12,0,0,0,.06-.06.13.13,0,0,0,0-.06h.16a.36.36,0,0,1-.1-.14.71.71,0,0,0-.27-.43.24.24,0,0,1-.08-.29.14.14,0,0,1,.19,0,.16.16,0,0,1,.09,0h0a1,1,0,0,0-.42-.26,1.25,1.25,0,0,1-.59-.22c-.1-.09-.17-.26,0-.34a.09.09,0,0,0,.06-.06.58.58,0,0,0-.17-.18,1.11,1.11,0,0,0-.3-.17l-.12,0H20.9a.26.26,0,0,1-.24-.19.13.13,0,0,1,0-.12,5.27,5.27,0,0,0-.51.19.22.22,0,0,0-.15.21l.1.1a.3.3,0,0,0,.08.08.52.52,0,0,1,.1.11.73.73,0,0,0,.3.22.28.28,0,0,1,.2.24.15.15,0,0,1-.12.16H20.6a1.29,1.29,0,0,1-.5-.33.69.69,0,0,1-.48-.15c-.1-.08-.23-.24-.36-.25a.79.79,0,0,1-.45-.1.47.47,0,0,1-.18-.48,3.62,3.62,0,0,1-.36-.42.87.87,0,0,1-.21-.43v0c-.13.07-.3-.11-.3-.24a1.65,1.65,0,0,0-.17-.9.21.21,0,0,1,0-.28.22.22,0,0,1,.28.07,1.76,1.76,0,0,1,.14.23l.05,0c.12-.09.2,0,.27.11a1.24,1.24,0,0,0,.1.2c-.07.13,0,.15.1.16l.09.11c.09.09.23.06.32.15a1.87,1.87,0,0,0,.51.11s0,.09,0,.18-.29,0-.41-.1-.14-.12-.24-.08a.07.07,0,0,0,0,.08.28.28,0,0,0,.24.15c.16,0,.34,0,.45.15s0,.21.09.23.06-.12.1-.15.14-.17.22-.23a.21.21,0,0,1,0,.06c0,.26.15.43.45.38a.29.29,0,0,1,.25.09,4.15,4.15,0,0,0,.64.46.81.81,0,0,1,.31.19h0a.41.41,0,0,1,.09.1v0h0a.85.85,0,0,1,.16.17,7.88,7.88,0,0,0,1.05.41c.55.19.75.51.55,1,0,.12-.07.22,0,.32A1,1,0,0,0,24,79c.18,0,.41,0,.5.2s.33.24.55.2l.06,0a.32.32,0,0,0,.43.08s0,0,0,0h0c.14.09.14.31.32.38a.69.69,0,0,1,.28.11.2.2,0,0,0-.11,0c-.08,0-.21,0-.2.07a.39.39,0,0,0,.3.34c.12,0,.26.13.35,0l0,0c.09,0,.16.12.27.14.27,0,.54.09.82.08a2.21,2.21,0,0,1,.51,0,.46.46,0,0,0,.23-.06l.1.09s.07.1,0,.16-.11,0-.16,0c-.26-.1-.39.1-.56.23a.51.51,0,0,1-.3,0c-.08,0-.13-.16-.23-.06s.05.16,0,.25a.31.31,0,0,1-.26-.08c-.24-.18-.5-.35-.74-.52a.11.11,0,0,0-.16,0l0,0a.21.21,0,0,0,0,.29h0c.2.14.47.16.64.36.05,0,.1,0,.13.06a.54.54,0,0,0,.37,0c.07.11.12.25.27.06a1.46,1.46,0,0,1,.28-.21c.26.12.33-.15.5-.23a1.11,1.11,0,0,1,.26,0c.19.05.24,0,.23-.19a.32.32,0,0,0-.12-.3l.05,0a.31.31,0,0,0,.21,0s0,.09,0,.2.08,0,.14.07a0,0,0,0,0,.05,0c.23,0,.42.25.66.09l.11-.1c-.18-.15-.45,0-.61-.16,0-.08-.15-.12-.19-.19l.12,0a2.51,2.51,0,0,0,1.2.24c.27,0,.44.24.7.26,0,0,0,.05,0,.08,0,.39.29.51.59.62h.1v0c-.18.2,0,.24.13.3l.07,0a.4.4,0,0,0,0,.15c.14.2.38.26.58.38l.17,0a1.43,1.43,0,0,1,.08.22,1.17,1.17,0,0,0,0,.2,1.82,1.82,0,0,0,.9.76l.1,0a.66.66,0,0,0,.46.38.74.74,0,0,1,.45.15,1.55,1.55,0,0,1,.32.2c.06.06.2.11.17.22a.2.2,0,0,1-.11,0c-.13,0-.25,0-.37,0a.31.31,0,0,0-.3.22c0,.13-.06.3.07.37s.29.26.46.36a1.33,1.33,0,0,0,1,.22l.25.11a.18.18,0,0,0,.23.08h0c.1,0,.12-.16.17-.25a.34.34,0,0,0,0-.24c-.09-.25-.06-.3.22-.29a2.28,2.28,0,0,1,.45,0,.42.42,0,0,0,.27,0c.16-.12.26,0,.37.08h.29c.28,0,.52-.18.8-.16.12,0,.19.19.32.15a3.9,3.9,0,0,1,1.23,0c.17.1.33,0,.49,0h.07c0,.08,0,.17.08.2a.21.21,0,0,0,.27,0,.4.4,0,0,1,.33-.09c.1-.1.08-.14-.06-.17s-.13,0-.17,0a.84.84,0,0,1,.69.06c-.07,0-.08.09-.08.24a.39.39,0,0,0,.43.06h.25c.21.1.49.09.58-.06a1.67,1.67,0,0,1,.28-.31,2.29,2.29,0,0,0,.37,0c.18,0,.38.06.53-.07s.36-.15.49.08.17.18.26,0,.29-.12.45-.1a12.42,12.42,0,0,0,1.36.09c.1,0,.25,0,.25-.13s-.13-.14-.25-.15a2.21,2.21,0,0,1-.68,0c-.12-.06-.3-.13-.27-.29s.19-.13.31-.14l.33,0a3.64,3.64,0,0,0,1,0c.31-.12.71,0,.94-.31,0,0,.1,0,.14,0a.67.67,0,0,0,.63,0,1.57,1.57,0,0,1,.7.17c-.06,0-.08.09-.12.1-.43.09-.75.45-1.2.49-.14,0-.11.12-.15.2a.31.31,0,0,1-.35.1c-.29,0-.6-.15-.74.25-.1.09-.09.2,0,.25s.21,0,.3-.07a.81.81,0,0,1,1.15.06h0a.34.34,0,0,0,.48,0l0-.06a.58.58,0,0,1,.71-.2,1.68,1.68,0,0,0,1-.23.16.16,0,0,0,.12-.19c0-.1-.09-.16-.21-.14s-.21-.06-.32-.07a.2.2,0,0,0-.2-.07s0,0,0,0a.43.43,0,0,0,0-.07c.07.07.09-.07.14-.11l.13-.06a.42.42,0,0,0,.3-.12c.24,0,.1-.26.15-.39a.1.1,0,0,0,0,0l.24-.08c.07.07-.07.22.1.24s.15-.08.15-.18.15-.1.19-.17.19-.14.28,0a.24.24,0,0,0,.33.06c.24-.11.54-.12.7-.38a8.59,8.59,0,0,0,1-.2,3.16,3.16,0,0,0,1-.36c.1-.08.09-.21.12-.33a.39.39,0,0,1,.27-.18c.06,0,.16,0,.14-.13S56.11,82,56,82a1.53,1.53,0,0,0-1.08.56c-.05.11-.09.22-.21.23s-.06-.19-.18-.22a.48.48,0,0,0-.35.08.27.27,0,0,1-.34,0c-.08-.06-.12-.15,0-.21a8.7,8.7,0,0,0,1-.4c.4-.23.84-.37,1.23-.63a.22.22,0,0,1,.29,0v0c-.18.26-.15.33.24.5.09-.06.19.11.28,0s.33-.22.48-.34.56-.19.59-.54a.25.25,0,0,0-.24-.16.2.2,0,0,1-.17,0h.17a3,3,0,0,0,.25-.25c.29-.07.52-.26.81-.35a2.32,2.32,0,0,0,.61-.21c.36-.24.62-.58,1-.81.21-.13.38-.34.67-.32.08,0,.08-.08.11-.12.23-.37.63-.49,1-.7.08,0,.22-.1.25,0s.18.12.29.06c.16-.23.47-.3.57-.57a7.29,7.29,0,0,1,.88-.45c.31-.13.57-.33.86-.46a6,6,0,0,1,.84-.5.44.44,0,0,0,.27-.32.58.58,0,0,1,.32,0c.11,0,.2,0,.24-.13l0,0a1,1,0,0,1,.3,0c.35,0,.49-.14.52-.43,0-.12,0-.14.16-.15s.57-.21.58-.4.19-.32.28-.49a2.64,2.64,0,0,1,.74-.92c.16-.13.42-.08.53-.3h0s.06,0,.07-.1a2,2,0,0,1,0-.24l.06-.1a.16.16,0,0,1,.09,0c.32,0,.43-.23.58-.41l.07-.07a.42.42,0,0,0,.44-.34c0-.13.14-.2.24-.28l.25-.25c.22.06.45.13.43-.24,0-.1.13-.12.19-.19.55-.41.61-.55.5-1.12a.26.26,0,0,1,0-.21s.14-.09,0-.16M21.54,39.5a.74.74,0,0,0,.22-.43c0-.28.39-.13.38.09a1,1,0,0,1-.26.62.17.17,0,0,1-.24,0h0c-.07,0-.16-.2-.09-.29M8.75,39.05a2.91,2.91,0,0,0,.17-.66c0-.11.15-.12.23-.08a.29.29,0,0,1,.15.22c0,.48,0,1,0,1.44,0,.23-.28.17-.36,0a.23.23,0,0,1-.28-.17h0a1.37,1.37,0,0,1,.06-.75m.84,2.38c0,.16-.24.12-.32,0A1.78,1.78,0,0,1,9,41a.87.87,0,0,0-.17-.3.26.26,0,0,1-.15-.27.14.14,0,0,1,.18-.1l0,0,.07,0H9a.17.17,0,0,1,.24,0l0,0a1.05,1.05,0,0,1,.28.53,1.37,1.37,0,0,1,0,.57m1.83-13-.09.08.09-.08m-.46.29h0a1.33,1.33,0,0,1-.05.19.37.37,0,0,0,0-.18M10.3,35l0-.1c.12-.21.45.08.34.27a.84.84,0,0,0-.08.41c0,.22-.28.17-.36,0a1.11,1.11,0,0,1-.08-.44c0-.11.06-.16.13-.15M9.67,45.41c-.1.06,0,.15,0,.22a.28.28,0,0,1,0,.13L9.6,45.7c-.08-.09,0-.19,0-.29a.2.2,0,0,0-.09-.2.55.55,0,0,0,.22.06c.14,0,.18.12.17.24h0c-.07,0-.1-.16-.2-.1m.25.36a.34.34,0,0,1,0,.1s0,.08,0,.12a.58.58,0,0,0,0-.14l-.05,0a.1.1,0,0,1,.08,0m.53,2.28a.3.3,0,0,0-.13-.2,1.43,1.43,0,0,1-.39-1.49.83.83,0,0,0,0-.22,6.6,6.6,0,0,0,.34,1.51.64.64,0,0,0,.25.21c0,.1,0,.2.07.3a.49.49,0,0,0-.11.38,2,2,0,0,1-.06-.49m.82,2.37h0a.32.32,0,0,0-.14,0c-.08,0-.14,0-.19,0a1.68,1.68,0,0,1-.39-1.2,1.54,1.54,0,0,0,0-.64,3.62,3.62,0,0,1,.17.56c.09.23.32.2.49.27a2.47,2.47,0,0,1,.1,1m.9-13.73L12,37a.73.73,0,0,1-.06.21,1.25,1.25,0,0,0,0,.69,3.49,3.49,0,0,1,.07.43.31.31,0,0,1-.07.09c-.07.09,0,.2,0,.3a1,1,0,0,1,0,.34h0a.72.72,0,0,0-.2.09h-.08s-.05,0-.07.05a.44.44,0,0,1,0,.1,1,1,0,0,0-.21.6,2.21,2.21,0,0,1,0,1.48,2.62,2.62,0,0,0-.13,1.36,1.54,1.54,0,0,1,0,.37c0,.22,0,.44-.06.66l0,.42c0,.83,0,1.65,0,2.48,0,.28-.38.13-.38-.09s0-.65,0-1c0-.84,0-1.68,0-2.52,0-.42,0-.85,0-1.27s-.1-.81-.13-1.21a2.32,2.32,0,0,1,0-.59,1.25,1.25,0,0,1,.14-.41,1.86,1.86,0,0,0,.19-.46c0-.19,0-.38,0-.57a2,2,0,0,1,.18-.58l.21-.52c.15-.36.3-.72.48-1.07s.43.08.34.28m-6.46,22a.58.58,0,0,1,.16-.53.12.12,0,0,1,0-.12.21.21,0,0,1,.27.07,4.4,4.4,0,0,1,.4.46c.06.11,0,.24-.1.26L6,58.94c-.14,0-.24-.14-.25-.25M7.42,60a.34.34,0,0,1-.26.15.94.94,0,0,1-.28-.06c-.32-.1-.36.27-.4.5,0,0-.11-.06-.11-.09h0s0,0,0,0-.06-.19-.1-.28A2.8,2.8,0,0,1,6,59.83l0,0a.35.35,0,0,1-.14-.25.1.1,0,0,1,.08-.1A.51.51,0,0,1,6,59.29a.56.56,0,0,1,.45-.11h0v0s.06,0,.08,0,.24,0,.29,0,.13.08.1.12a3,3,0,0,1,.39.31c.08.09.21.25.13.38m1.08-6c.06-.25.42,0,.37.18,0,0,0,0,0,.06h0l0,0,0,0,.14,0a.28.28,0,0,1,.2.24.15.15,0,0,1-.13.16H9.1a1,1,0,0,1-.45-.18A.52.52,0,0,1,8.48,54M9,65.47a.43.43,0,0,1-.52.19s-.13-.11-.07-.12h0s0-.07,0-.07a1.32,1.32,0,0,0,.28,0s-.05-.09,0-.09h.24s.1.08.09.12m0-.75c0,.14-.17.13-.28.06l-.21-.14a.2.2,0,0,1-.21,0,.54.54,0,0,1-.37.08.57.57,0,0,1-.39-.54A.15.15,0,0,1,7.68,64h.05a.28.28,0,0,1,.2.24s0,0,0,0h0a.45.45,0,0,0,.21-.12.31.31,0,0,1,0-.1c-.34-.1-.55-.6-.66-.89a.15.15,0,0,1,.08-.2l.33-.08a.25.25,0,0,1,.05-.19l0,0a.24.24,0,0,0-.11-.09.22.22,0,0,1-.14-.28.23.23,0,0,1,.26-.15.73.73,0,0,1,.38.29l.12.15a.23.23,0,0,1,.26.19.22.22,0,0,1,0,.14c0,.06,0,.07,0,.13a.22.22,0,0,1,0,.32l-.09,0a.42.42,0,0,1-.5-.15h0l-.18,0a.84.84,0,0,0,.12.23c.08.1.11.16.24.1s.33.15.29.29a1.42,1.42,0,0,0,0,.2.42.42,0,0,1,.27,0,.43.43,0,0,1,.21.55m1.67-4.16a4.22,4.22,0,0,1-.7-1.22,3.38,3.38,0,0,0-.13-.42l-.09-.19c-.1,0-.24-.1-.28-.2A18.64,18.64,0,0,1,9,56.42a.13.13,0,0,1,0-.06l0-.08c0-.18,0-.37-.05-.54s-.17-.29-.25-.44a1.33,1.33,0,0,1-.17-.47.15.15,0,0,1,.13-.16h0a.27.27,0,0,1,.2.24c.06.36.39.61.45,1a.67.67,0,0,1,0,.2,1.11,1.11,0,0,1,.24.44l.13.13a1.82,1.82,0,0,1,.22,1.57l.15.31a4.66,4.66,0,0,1,.26.71,4.07,4.07,0,0,0,.7,1.21c.09.11-.29.2-.37.09m.45,8.18H11a.62.62,0,0,1-.22-.43s0,0,0,0a.5.5,0,0,1,0-.12s0,0,0,0a.49.49,0,0,1,.26.58m2.71-43.26.13-.21c.11-.21.44.09.34.27l-.15.25a.05.05,0,0,1,0,0A.86.86,0,0,0,14,26a2.35,2.35,0,0,0-.24.37c-.08.21-.07.47-.28.61s-.28,0-.32-.17a1.07,1.07,0,0,1,.64-1.32m-.54,1.9c-.07-.28.31-.24.37,0a3.62,3.62,0,0,1,.14.73.21.21,0,0,1,.07.21,2.23,2.23,0,0,1-.38.81c-.14.15-.42-.15-.32-.31a1.24,1.24,0,0,0,.25-.69,3.1,3.1,0,0,0-.13-.74m-.44,37.85a.35.35,0,0,1,0-.08,1.76,1.76,0,0,1-.51-.47c-.09-.12.29-.2.37-.1a3,3,0,0,0,.29.32.25.25,0,0,1,.19.12s.06.06,0,.08a.14.14,0,0,1,0,.06s0,0,0,0a.19.19,0,0,1,0,.08.14.14,0,0,1-.11.09s0,0,0,0a.14.14,0,0,1-.08-.06.36.36,0,0,1-.14-.11m.11,5.9c0-.18.09-.32.33-.25h0c-.07.15-.15.27-.35.24m.64-.84c-.08.11-.2.25-.34.23a.19.19,0,0,1-.14-.07h0l-.08,0s-.13-.1-.1-.12l.12-.07a.17.17,0,0,1,0-.14.29.29,0,0,1,.31,0l.05,0h.1s.12.08.09.12m.11-36.19a1.17,1.17,0,0,1-.45.46c-.14.07-.33-.15-.29-.3-.12-.06-.22-.25-.11-.36a5.92,5.92,0,0,1,.45-.41.28.28,0,0,1,0-.09,2.65,2.65,0,0,0-.1-.84c-.08-.28.3-.24.36,0a3.09,3.09,0,0,1,.12.73.32.32,0,0,1,.17.19.8.8,0,0,1-.16.63m.69-2.87a4.77,4.77,0,0,0-.05.76,1,1,0,0,1-.23.63c-.1.09-.26,0-.3-.11s-.18-.25-.24-.38a.56.56,0,0,1,0-.44.84.84,0,0,1,.25-.31.18.18,0,0,0,.09-.21c0-.13.05-.2.14-.2s.38.08.34.26m.45-5a5.36,5.36,0,0,0-.44.86c-.1.22-.43-.07-.34-.27a5.36,5.36,0,0,1,.44-.86c.14-.2.47.1.34.27M21.34,21a2.15,2.15,0,0,1-.34.56,2.48,2.48,0,0,0-.19.26l0,0s0,.05,0,.08,0,.16-.08.2a.23.23,0,0,1-.3-.1h0a.41.41,0,0,1,0-.36.14.14,0,0,1,.06-.13l.09-.13a2.56,2.56,0,0,0,.4-.59c.09-.25.45,0,.38.18m.86-2.47c-.05-.29.32-.24.36,0a.9.9,0,0,1-.22.77c-.15.19-.47-.11-.34-.27a.7.7,0,0,0,.2-.49m-3.52,2.08c0-.12.15-.13.23-.09a.24.24,0,0,1,.09.08c.37-.27.59-.73,1.08-.83a.24.24,0,0,1,.26.14.17.17,0,0,1,0,.1c.16-.23.43-.4.58-.63a1.92,1.92,0,0,1,.75-.89c.19-.1.43.27.21.38s-.45.52-.64.81a2.46,2.46,0,0,1-.38.41.78.78,0,0,0-.26.36c-.06.25-.42,0-.37-.19a.61.61,0,0,1,0-.11h0a1.28,1.28,0,0,0-.65.45,1.36,1.36,0,0,1-.24.24.17.17,0,0,1,0,.12c-.12.23-.2.47-.31.7a1.83,1.83,0,0,1-.42.58,11.2,11.2,0,0,0-1.16,1.22c-.06.06-.18,0-.23,0a.27.27,0,0,1-.1-.24c.23-1,1.41-1.52,1.52-2.59m1.61,1.18a2.19,2.19,0,0,1-.12.33c-.05.1-.19.07-.26,0a.24.24,0,0,1-.09-.28,1.06,1.06,0,0,0,.09-.25.14.14,0,0,1,.18-.1l.05,0a.28.28,0,0,1,.15.27m-3-1.49a2.44,2.44,0,0,0,0,.27s0,.11,0,.14a.25.25,0,0,1,.09.29.17.17,0,0,1-.24,0h0a1,1,0,0,1-.26-.8c0-.28.38-.13.38.09m-.94,1.89.39-.63c.13-.2.46.09.35.27l-.39.63c-.13.2-.46-.09-.35-.27m-.7,2.35a1.91,1.91,0,0,1,.32-.24c.18-.13.45.19.28.34l-.06.07a.22.22,0,0,1,0,.14c0,.22-.16.41-.2.62a.59.59,0,0,1,0,.14c0,.24-.38,0-.38-.13s0-.08,0-.12,0-.35.05-.52l0,0a.21.21,0,0,1,0-.28M15.21,28a2.83,2.83,0,0,0,1.13-1.81v-.05c0-.14.38-.18.39,0v.05a.36.36,0,0,0,.08.23l0,0v0c.08-.14.14-.29.22-.43s.31-.58.45-.87a1,1,0,0,1,.2-.43c.06-.08.43-.1.36,0l-.18.4,0,.12a3.05,3.05,0,0,0-.05.52,1,1,0,0,1-.12.53l-.14.18.07,0c.07-.09.15-.18.22-.28a5.41,5.41,0,0,0,.45-.94.26.26,0,0,1,.27-.09c0-.06,0-.12.05-.17s.12-.1.21-.1l0-.06-.09,0-.16-.13c-.13-.13.15-.18.27-.16a2.76,2.76,0,0,0,.56-.87,2.08,2.08,0,0,1,.32-.88.44.44,0,0,1,.43-.15.27.27,0,0,1,.2.3.5.5,0,0,1-.2.29.62.62,0,0,0-.14.18.32.32,0,0,1,.25.07l.05.06a1.48,1.48,0,0,0,.14-.42c0-.12.41-.14.38,0a4.11,4.11,0,0,1-.56,1.2s0,0,0,0a.06.06,0,0,1,0,.06l0,.08a1.55,1.55,0,0,0-.07.23c0,.11-.39.15-.39,0a.65.65,0,0,1,.05-.2,0,0,0,0,1,0-.07.89.89,0,0,1,.08-.17,1.63,1.63,0,0,0,.07-.3.74.74,0,0,0,0-.33.14.14,0,0,0,0-.06h0a.4.4,0,0,1-.15,0,1,1,0,0,1-.11.28c-.16.27-.4.49-.56.76a.54.54,0,0,1,.2.41c0,.13-.24.14-.34.1l0,.16c0,.13-.24.14-.32.1-.06.14-.1.28-.16.4a.1.1,0,0,1,0,.07,1.2,1.2,0,0,1-.29.78,1.67,1.67,0,0,1-.64.57c-.06,0-.29.06-.3-.05a3.09,3.09,0,0,1,0-.43h0a1.25,1.25,0,0,1-.12.54.28.28,0,0,1-.24.1v0c0,.11-.06.22-.09.32a3.49,3.49,0,0,1-.21.67,7.85,7.85,0,0,0-.42.88,9.6,9.6,0,0,0-.27,1c0,.12-.39.15-.39,0a2.66,2.66,0,0,1,.18-.8,2.19,2.19,0,0,0,.11-.67,2.85,2.85,0,0,0,0-.5c0-.19-.32-.21-.48-.27s-.09-.07-.05-.12m2.94,45.43a3.44,3.44,0,0,1-.46,0,.14.14,0,0,1-.08,0,.68.68,0,0,1-.37,0,1,1,0,0,1-.25,0,.33.33,0,0,1-.24.19.42.42,0,0,1-.34-.08.14.14,0,0,1-.09,0,1.1,1.1,0,0,1-.6-.46,2.08,2.08,0,0,1-.4-.65.14.14,0,0,1,.07-.19h0a1.7,1.7,0,0,1,.59.1c0-.14,0-.28.21-.21s.41.36.63.54a2.84,2.84,0,0,0,.56.33,4,4,0,0,0,.6,0c.21,0,.38.4.12.4m1.14-46.26a10.49,10.49,0,0,1-.74.75c-.16.15-.45-.19-.29-.34a8.73,8.73,0,0,0,.68-.68c.16-.18.48.11.35.28m.42,13.51c-.11.21-.45-.08-.35-.27a.75.75,0,0,0,0-.51c-.07-.28.31-.24.36,0a1.11,1.11,0,0,1-.06.8m1.18,3.85c-.06.1-.18.07-.26,0a2.49,2.49,0,0,1-.31-.23c-.08-.07-.15-.19-.09-.29a.17.17,0,0,1,.24,0l0,0a3.55,3.55,0,0,0,.31.23.26.26,0,0,1,.09.29m.17-4.72-.12.3,0,.09h0a.18.18,0,0,1,0,.1.17.17,0,0,1-.24,0l0,0a.3.3,0,0,1-.09-.13.85.85,0,0,0-.25.4v.1c0,.11-.14.12-.23.08a.28.28,0,0,1-.15-.27.59.59,0,0,1,0-.13,2.21,2.21,0,0,1,.25-.75,1.65,1.65,0,0,1,.55-.5.12.12,0,0,1,.15-.08h0c.12,0,.27.08.29.19a1.05,1.05,0,0,1-.1.58M45.43,70.09a.3.3,0,0,1-.26.06,4.66,4.66,0,0,1-1.37-.65,8.66,8.66,0,0,1-2-.77,5.31,5.31,0,0,1-2.09-1,.26.26,0,0,1-.1-.24.13.13,0,0,1,.11-.1c0-.08,0-.16.08-.18a1.59,1.59,0,0,1,1.05.33,3.13,3.13,0,0,0,.6.24,6.12,6.12,0,0,0,.69.22,1.16,1.16,0,0,1,.57.24,1.21,1.21,0,0,1,.2.26.91.91,0,0,0,.11.16,6,6,0,0,0,1,.45.33.33,0,0,1,.15.24l.34.21a3.57,3.57,0,0,0,.87.39c.06,0,.15.06.09.13m18.36.77.27-.17a.82.82,0,0,1,0-.38.13.13,0,0,1,.18-.1.69.69,0,0,0,.42-.08.17.17,0,0,1,.17,0l.3-.21a.2.2,0,0,1,.26.06c.22-.14.42-.3.63-.44a.28.28,0,0,1,.28,0c.07,0,.08.1,0,.14a10,10,0,0,1-.86.58l0,0c-.3.2-.59.42-.9.6a.13.13,0,0,1,0,.11l-.36.23a.19.19,0,0,1-.27-.06c-.06-.06-.11-.22,0-.28m4-.5-.18.1a.16.16,0,0,1,0,.06,2.12,2.12,0,0,1-.86.52,2.36,2.36,0,0,1-.45.33.11.11,0,0,1,0,.11.65.65,0,0,1-.52.35,2.2,2.2,0,0,1-.37-.06l-.14.06-.06.08a.23.23,0,0,1-.24,0c-.25.09-.51.16-.75.26a.14.14,0,0,1-.14,0,5.85,5.85,0,0,1-.81.52,3.58,3.58,0,0,1-1.3.48c-.06,0-.2,0-.21-.09s.13-.11.19-.12A3,3,0,0,0,63,72.56a4.83,4.83,0,0,0,.84-.58.14.14,0,0,1,.09-.14l.1,0a.15.15,0,0,1,.09-.17,1.69,1.69,0,0,1,.31-.13.16.16,0,0,1,.08-.06,15.19,15.19,0,0,0,1.57-.64l.36-.13,0-.06a.15.15,0,0,1,.21,0,1.61,1.61,0,0,0,.57-.39c.07-.08.18,0,.25,0a.39.39,0,0,1,.24,0c.07,0,.08.1,0,.15m3.89-.51a.21.21,0,0,1,0,.28c-.23.28-.54.47-.78.73a.11.11,0,0,1-.12,0l-.09.09,0,0c-.16.15-.45-.19-.28-.34l0-.05c.15-.15.28-.35.42-.52a2.47,2.47,0,0,1,.51-.56c.12-.09.28,0,.33.17a.44.44,0,0,1,.15-.12.79.79,0,0,1-.15.12.2.2,0,0,1,0,.13" transform="translate(-0.17)" fill="#fff"/>
        <path d="M21.59,76.6a.12.12,0,0,1-.05,0l-.31-.19-.16,0a1.76,1.76,0,0,1,.58.36v0l-.05-.06" transform="translate(-0.17)" fill="#fff"/>
        <path d="M15.87,72.76a.24.24,0,0,1,0-.08h-.08l.06.09" transform="translate(-0.17)" fill="#fff"/>
        <path d="M11.84,37.38l0,.1c0-.08.1-.16.14-.24s0-.12,0-.17l-.14.3" transform="translate(-0.17)" fill="#fff"/>
        <path d="M6.08,59.87l.08.09,0-.07,0,0" transform="translate(-0.17)" fill="#fff"/>
        <path d="M11,68.31a.24.24,0,0,0,.09.17.26.26,0,0,0-.09-.17" transform="translate(-0.17)" fill="#fff"/>
      </g>
    </g>
    <rect x="11.02" y="30.63" width="2.98" height="2.98" fill="#fff"/>
    <rect x="2.6" y="53.34" width="2.98" height="2.98" fill="#fff"/>
    <rect x="22.96" y="21.68" width="2.98" height="2.98" fill="#fff"/>
    <rect x="11.02" y="24.66" width="2.98" height="2.98" fill="#fff"/>
    <rect x="19.98" y="21.68" width="2.98" height="2.98" fill="#fff"/>
    <rect x="25.94" y="15.72" width="2.98" height="2.98" fill="#fff"/>
    <rect x="14.03" y="36.59" width="2.98" height="2.98" fill="#fff"/>
    <rect x="25.94" y="24.66" width="2.98" height="2.98" fill="#fff"/>
    <rect x="10.36" y="14.65" width="2.98" height="2.98" fill="#fff"/>
    <rect x="5.97" y="47.39" width="2.98" height="2.98" fill="#fff"/>
    <rect x="19.99" y="33.58" width="2.98" height="2.98" fill="#fff"/>
    <rect x="19.98" y="18.7" width="2.98" height="2.98" fill="#fff"/>
    <rect x="25.94" y="18.7" width="2.98" height="2.98" fill="#fff"/>
    <rect x="11.05" y="33.61" width="2.98" height="2.98" fill="#fff"/>
    <rect x="8.07" y="36.59" width="2.98" height="2.98" fill="#fff"/>
    <rect x="17" y="39.58" width="2.98" height="2.98" fill="#fff"/>
    <rect x="14.33" y="48.41" width="2.98" height="2.98" fill="#fff"/>
    <rect x="5.09" y="39.57" width="2.98" height="2.98" fill="#fff"/>
    <rect x="11.05" y="39.57" width="2.98" height="2.98" fill="#fff"/>
    <rect x="21.45" y="8.04" width="2.98" height="2.98" fill="#fff"/>
    <rect x="28.92" y="21.68" width="2.98" height="2.98" fill="#fff"/>
    <rect x="14" y="27.65" width="2.98" height="2.98" fill="#fff"/>
    <rect x="25.94" y="12.74" width="2.98" height="2.98" fill="#fff"/>
    <rect x="22.96" y="24.66" width="2.98" height="2.98" fill="#fff"/>
    <rect x="19.98" y="27.65" width="2.98" height="2.98" fill="#fff"/>
    <rect x="16.98" y="30.63" width="2.98" height="2.98" fill="#fff"/>
    <rect x="11.33" y="45.33" width="2.98" height="2.98" fill="#fff"/>
    <rect x="22.96" y="15.72" width="2.98" height="2.98" fill="#fff"/>
    <rect x="16.99" y="24.66" width="2.98" height="2.98" fill="#fff"/>
    <rect x="18.92" y="13.68" width="2.98" height="2.98" fill="#fff"/>
    <rect x="28.92" y="15.72" width="2.98" height="2.98" fill="#fff"/>
    <rect x="25.94" y="21.68" width="2.98" height="2.98" fill="#fff"/>
    <g clip-path="url(#a)">
      <g>
        <g clip-path="url(#c)">
          <rect x="11.02" y="30.63" width="2.98" height="2.98" fill="#fff"/>
        </g>
        <g clip-path="url(#d)">
          <rect x="2.6" y="53.34" width="2.98" height="2.98" fill="#fff"/>
        </g>
        <g clip-path="url(#e)">
          <rect x="22.96" y="21.68" width="2.98" height="2.98" fill="#fff"/>
        </g>
        <g clip-path="url(#f)">
          <rect x="11.02" y="24.66" width="2.98" height="2.98" fill="#fff"/>
        </g>
      </g>
    </g>
    <g clip-path="url(#a)">
      <g>
        <g clip-path="url(#h)">
          <rect x="49.79" y="3.8" width="2.98" height="2.98" fill="#fff"/>
        </g>
        <g clip-path="url(#i)">
          <rect x="19.98" y="21.68" width="2.98" height="2.98" fill="#fff"/>
        </g>
        <g clip-path="url(#j)">
          <rect x="70.66" y="12.74" width="2.98" height="2.98" fill="#fff"/>
        </g>
        <g clip-path="url(#k)">
          <rect x="52.77" y="21.68" width="2.98" height="2.98" fill="#fff"/>
        </g>
        <g clip-path="url(#l)">
          <rect x="25.94" y="15.72" width="2.98" height="2.98" fill="#fff"/>
        </g>
        <g clip-path="url(#m)">
          <rect x="34.88" y="18.7" width="2.98" height="2.98" fill="#fff"/>
        </g>
      </g>
    </g>
    <g clip-path="url(#a)">
      <g>
        <g clip-path="url(#o)">
          <rect x="58.73" y="3.8" width="2.98" height="2.98" fill="#fff"/>
        </g>
        <g clip-path="url(#p)">
          <rect x="14.03" y="36.59" width="2.98" height="2.98" fill="#fff"/>
        </g>
        <g clip-path="url(#q)">
          <rect x="25.94" y="24.66" width="2.98" height="2.98" fill="#fff"/>
        </g>
      </g>
    </g>
    <g clip-path="url(#a)">
      <g>
        <g clip-path="url(#s)">
          <rect x="75.33" y="15.32" width="2.98" height="2.98" fill="#fff"/>
        </g>
        <g clip-path="url(#t)">
          <rect x="58.73" y="24.66" width="2.98" height="2.98" fill="#fff"/>
        </g>
        <g clip-path="url(#u)">
          <rect x="10.37" y="14.65" width="2.98" height="2.98" fill="#fff"/>
        </g>
        <g clip-path="url(#v)">
          <rect x="71.7" y="22.25" width="2.98" height="2.98" fill="#fff"/>
        </g>
      </g>
    </g>
    <g clip-path="url(#a)">
      <g>
        <g clip-path="url(#x)">
          <rect x="40.85" y="18.7" width="2.98" height="2.98" fill="#fff"/>
        </g>
        <g clip-path="url(#y)">
          <rect x="5.97" y="47.39" width="2.98" height="2.98" fill="#fff"/>
        </g>
        <g clip-path="url(#z)">
          <rect x="19.99" y="33.58" width="2.98" height="2.98" fill="#fff"/>
        </g>
      </g>
    </g>
    <g clip-path="url(#a)">
      <g>
        <g clip-path="url(#ab)">
          <rect x="67.68" y="12.74" width="2.98" height="2.98" fill="#fff"/>
        </g>
        <g clip-path="url(#ac)">
          <rect x="64.7" y="15.72" width="2.98" height="2.98" fill="#fff"/>
        </g>
        <g clip-path="url(#ad)">
          <rect x="64.7" y="18.7" width="2.98" height="2.98" fill="#fff"/>
        </g>
        <g clip-path="url(#ae)">
          <rect x="55.75" y="12.74" width="2.98" height="2.98" fill="#fff"/>
        </g>
        <g clip-path="url(#af)">
          <rect x="51.2" width="2.98" height="2.98" fill="#fff"/>
        </g>
        <g clip-path="url(#ag)">
          <rect x="52.77" y="9.76" width="2.98" height="2.98" fill="#fff"/>
        </g>
        <g clip-path="url(#ah)">
          <rect x="49.79" y="15.72" width="2.98" height="2.98" fill="#fff"/>
        </g>
        <g clip-path="url(#ai)">
          <rect x="43.83" y="9.76" width="2.98" height="2.98" fill="#fff"/>
        </g>
        <g clip-path="url(#aj)">
          <rect x="40.85" y="6.78" width="2.98" height="2.98" fill="#fff"/>
        </g>
        <g clip-path="url(#ak)">
          <rect x="34.88" y="15.72" width="2.98" height="2.98" fill="#fff"/>
        </g>
        <g clip-path="url(#al)">
          <rect x="19.98" y="18.7" width="2.98" height="2.98" fill="#fff"/>
        </g>
        <g clip-path="url(#am)">
          <rect x="25.94" y="18.7" width="2.98" height="2.98" fill="#fff"/>
        </g>
      </g>
    </g>
    <g clip-path="url(#a)">
      <g>
        <g clip-path="url(#ao)">
          <rect x="67.68" y="9.76" width="2.98" height="2.98" fill="#fff"/>
        </g>
        <g clip-path="url(#ap)">
          <rect x="67.68" y="18.7" width="2.98" height="2.98" fill="#fff"/>
        </g>
        <g clip-path="url(#aq)">
          <rect x="11.05" y="33.61" width="2.98" height="2.98" fill="#fff"/>
        </g>
        <g clip-path="url(#ar)">
          <rect x="8.07" y="36.59" width="2.98" height="2.98" fill="#fff"/>
        </g>
        <g clip-path="url(#as)">
          <rect x="17" y="39.58" width="2.98" height="2.98" fill="#fff"/>
        </g>
        <g clip-path="url(#at)">
          <rect x="14.33" y="48.41" width="2.98" height="2.98" fill="#fff"/>
        </g>
        <g clip-path="url(#au)">
          <rect x="5.09" y="39.57" width="2.98" height="2.98" fill="#fff"/>
        </g>
        <g clip-path="url(#av)">
          <rect x="58.73" y="6.78" width="2.98" height="2.98" fill="#fff"/>
        </g>
        <g clip-path="url(#aw)">
          <rect x="55.75" y="21.68" width="2.98" height="2.98" fill="#fff"/>
        </g>
        <g clip-path="url(#ax)">
          <rect x="11.05" y="39.57" width="2.98" height="2.98" fill="#fff"/>
        </g>
        <g clip-path="url(#ay)">
          <rect x="40.85" y="12.74" width="2.98" height="2.98" fill="#fff"/>
        </g>
        <g clip-path="url(#az)">
          <rect x="31.9" y="6.78" width="2.98" height="2.98" fill="#fff"/>
        </g>
      </g>
    </g>
    <g clip-path="url(#a)">
      <g>
        <g clip-path="url(#bb)">
          <rect x="70.66" y="15.72" width="2.98" height="2.98" fill="#fff"/>
        </g>
        <g clip-path="url(#bc)">
          <rect x="67.68" y="15.72" width="2.98" height="2.98" fill="#fff"/>
        </g>
        <g clip-path="url(#bd)">
          <rect x="49.79" y="18.7" width="2.98" height="2.98" fill="#fff"/>
        </g>
        <g clip-path="url(#be)">
          <rect x="46.81" y="0.65" width="2.98" height="2.98" fill="#fff"/>
        </g>
        <g clip-path="url(#bf)">
          <rect x="46.81" y="9.76" width="2.98" height="2.98" fill="#fff"/>
        </g>
        <g clip-path="url(#bg)">
          <rect x="43.83" y="15.72" width="2.98" height="2.98" fill="#fff"/>
        </g>
        <g clip-path="url(#bh)">
          <rect x="43.83" y="18.7" width="2.98" height="2.98" fill="#fff"/>
        </g>
        <g clip-path="url(#bi)">
          <rect x="21.45" y="8.04" width="2.98" height="2.98" fill="#fff"/>
        </g>
        <g clip-path="url(#bj)">
          <rect x="77.79" y="11.13" width="2.98" height="2.98" fill="#fff"/>
        </g>
        <g clip-path="url(#bk)">
          <rect x="34.88" y="2.34" width="2.98" height="2.98" fill="#fff"/>
        </g>
        <g clip-path="url(#bl)">
          <rect x="28.92" y="21.68" width="2.98" height="2.98" fill="#fff"/>
        </g>
        <g clip-path="url(#bm)">
          <rect x="14" y="27.65" width="2.98" height="2.98" fill="#fff"/>
        </g>
        <g clip-path="url(#bn)">
          <rect x="25.94" y="12.74" width="2.98" height="2.98" fill="#fff"/>
        </g>
        <g clip-path="url(#bo)">
          <rect x="22.96" y="24.66" width="2.98" height="2.98" fill="#fff"/>
        </g>
        <g clip-path="url(#bp)">
          <rect x="19.97" y="27.65" width="2.98" height="2.98" fill="#fff"/>
        </g>
        <g clip-path="url(#bq)">
          <rect x="16.98" y="30.63" width="2.98" height="2.98" fill="#fff"/>
        </g>
        <g clip-path="url(#br)">
          <rect x="11.33" y="45.33" width="2.98" height="2.98" fill="#fff"/>
        </g>
      </g>
    </g>
    <g clip-path="url(#a)">
      <g>
        <g clip-path="url(#bt)">
          <rect x="55.75" y="3.8" width="2.98" height="2.98" fill="#fff"/>
        </g>
        <g clip-path="url(#bu)">
          <rect x="22.96" y="15.72" width="2.98" height="2.98" fill="#fff"/>
        </g>
        <g clip-path="url(#bv)">
          <rect x="16.99" y="24.67" width="2.98" height="2.98" fill="#fff"/>
        </g>
        <g clip-path="url(#bw)">
          <rect x="46.81" y="15.72" width="2.98" height="2.98" fill="#fff"/>
        </g>
      </g>
    </g>
    <rect x="64.7" y="9.76" width="2.98" height="2.98" fill="#fff"/>
    <rect x="63.53" y="1.87" width="2.98" height="2.98" fill="#fff"/>
    <rect x="71.7" y="6.02" width="2.98" height="2.98" fill="#fff"/>
    <rect x="64.7" y="21.68" width="2.98" height="2.98" fill="#fff"/>
    <rect x="61.71" y="6.78" width="2.98" height="2.98" fill="#fff"/>
    <rect x="61.71" y="12.74" width="2.98" height="2.98" fill="#fff"/>
    <rect x="61.71" y="15.72" width="2.98" height="2.98" fill="#fff"/>
    <rect x="61.71" y="18.7" width="2.98" height="2.98" fill="#fff"/>
    <rect x="58.73" y="9.76" width="2.98" height="2.98" fill="#fff"/>
    <rect x="58.73" y="12.74" width="2.98" height="2.98" fill="#fff"/>
    <rect x="58.73" y="15.72" width="2.98" height="2.98" fill="#fff"/>
    <rect x="58.73" y="21.68" width="2.98" height="2.98" fill="#fff"/>
    <rect x="55.75" y="6.78" width="2.98" height="2.98" fill="#fff"/>
    <rect x="55.75" y="15.72" width="2.98" height="2.98" fill="#fff"/>
    <rect x="55.75" y="18.7" width="2.98" height="2.98" fill="#fff"/>
    <rect x="52.77" y="6.78" width="2.98" height="2.98" fill="#fff"/>
    <rect x="52.77" y="12.74" width="2.98" height="2.98" fill="#fff"/>
    <rect x="52.77" y="15.72" width="2.98" height="2.98" fill="#fff"/>
    <rect x="49.79" y="6.78" width="2.98" height="2.98" fill="#fff"/>
    <rect x="49.79" y="9.76" width="2.98" height="2.98" fill="#fff"/>
    <rect x="46.81" y="12.74" width="2.98" height="2.98" fill="#fff"/>
    <rect x="43.83" y="3.79" width="2.98" height="2.98" fill="#fff"/>
    <rect x="43.83" y="6.78" width="2.98" height="2.98" fill="#fff"/>
    <rect x="40.84" y="15.72" width="2.98" height="2.98" fill="#fff"/>
    <rect x="37.86" y="6.78" width="2.98" height="2.98" fill="#fff"/>
    <rect x="37.86" y="12.74" width="2.98" height="2.98" fill="#fff"/>
    <rect x="37.86" y="15.72" width="2.98" height="2.98" fill="#fff"/>
    <rect x="34.88" y="9.76" width="2.98" height="2.98" fill="#fff"/>
    <rect x="31.9" y="9.76" width="2.98" height="2.98" fill="#fff"/>
    <rect x="31.9" y="12.74" width="2.98" height="2.98" fill="#fff"/>
    <rect x="31.9" y="15.72" width="2.98" height="2.98" fill="#fff"/>
    <rect x="18.92" y="13.68" width="2.98" height="2.98" fill="#fff"/>
    <rect x="31.9" y="18.7" width="2.98" height="2.98" fill="#fff"/>
    <rect x="28.92" y="15.72" width="2.98" height="2.98" fill="#fff"/>
    <rect x="25.94" y="21.68" width="2.98" height="2.98" fill="#fff"/>
    <g clip-path="url(#bx)">
      <g>
        <path d="M50.63,52.89a4.46,4.46,0,0,1,.18-1.26l-.59,0c.14-.11.25-.2,0-.3l.64.09a4.69,4.69,0,0,1,1.07-1.78,13.62,13.62,0,0,1-.2-9,4.39,4.39,0,0,1,.54-.81,5.35,5.35,0,0,1,0-2.11,4.53,4.53,0,0,1-1.06-1.93,5.17,5.17,0,0,1-.61-3.57l-.81-.17c-.38-.09-.44-.19-.41-.59a.64.64,0,0,0,0-.36c-.21-.36-.44-.7-.67-1.07l-.2.19-.18-.21.07-.18.15.17c.17-.26-.17-.31-.17-.49.21-.22.19-.4-.08-.61-.37.4-.63.55-.79.43-.16.1-.24.38-.53.19l-.42.55,0-.1-.09,0a.86.86,0,0,1-.13.14l-.32.28s0,0-.05.05l0-.1c-.28.13-.42.45-.77.45,0,0,0,0-.06.05-.06.19-.21.07-.32.07a2.76,2.76,0,0,1-.08-.27c-.35.25-.78.4-1,.86,0-.13,0-.19,0-.24a6.45,6.45,0,0,1-.54.37,1.38,1.38,0,0,0-.53.59,2.68,2.68,0,0,1-.36.52,4.17,4.17,0,0,1-.37.36s-.1,0-.14,0a5.28,5.28,0,0,1-.93.52c-.33.19-.65.4-1,.62a5.16,5.16,0,0,0-.61.43c-.46.35-.88.77-1.32,1.16-.2.19-.42.36-.61.55a.62.62,0,0,0-.1.22l.06,0,.16-.18.06,0c0,.08-.06.23-.1.24-.22,0-.22.17-.23.31l.26.14c.21-.22-.22-.13-.12-.34l.4.19.3-.12a2.7,2.7,0,0,1,.39-.08l0,.07c-.16.2-.24.48-.54.56,0,0,0,.14,0,.16s.09.24,0,.37-.13.25-.2.38l.06,0A13.91,13.91,0,0,0,39.11,37a1.13,1.13,0,0,1-.17.39c-.16.19-.34.37-.5.55s-.1.42-.16.62.19.13.2.25.13,0,.15-.06.22-.33.35-.54l-.28.2a.36.36,0,0,1,.09-.22,3.09,3.09,0,0,0,.4-.55c.07-.14.13-.15.28-.12l-.18.4.25-.13c0,.46-.36.75-.47,1.14a4,4,0,0,0,.54-.62,1.11,1.11,0,0,1,.53-.45,1,1,0,0,0,.28-.17,2.7,2.7,0,0,0,.22-.33l.09.07a1,1,0,0,0-.18.22,1,1,0,0,0,0,.3l.73-.77.21.27a1.2,1.2,0,0,1,.94-.42c-.07.14-.14.3-.22.45a.46.46,0,0,1-.18.16c-.18.07-.37.11-.57.17,0-.1,0-.2,0-.31-.17.14-.31.25-.44.37s-.12.1-.12.15,0,.29.07.43-.23.12-.23.17-.14.17-.21.24a.27.27,0,0,1-.13,0,.22.22,0,0,1,0-.14.54.54,0,0,1,.1-.16l0,0c-.14.2-.35.38-.31.72.1-.13.17-.21.26-.34l.07.28h.06l.08-.25a1.56,1.56,0,0,0,.41-.15,2.79,2.79,0,0,0,.44-.4,4.37,4.37,0,0,0,.68-.68c.14-.21.21-.25.4-.05v-.22H43c-.13-.3-.4-.11-.67-.17a1.21,1.21,0,0,1,.82-.08c.14,0,.32.12.46-.06a.19.19,0,0,1,.13,0s0,.11.06.12.31,0,.47.06c0-.1,0-.15,0-.24l.86.19c0,.09,0,.15,0,.2s-.12,0-.16,0a3.91,3.91,0,0,0-1.2,1,.86.86,0,0,0,0-.13l-1.1.65c-.08.36-.14.4-.45.21,0,.08,0,.15,0,.22l-.23,0a.44.44,0,0,1,.35-.51h.06c-.14-.3.08-.4.31-.48a2.7,2.7,0,0,1-.2.31s-.08.11-.07.14a.36.36,0,0,0,.15.08l.22-.54s0,0,0,0l.35-.11s-.07-.09,0-.13S43.12,38,43,38s-.31-.12-.42.06l.2.25,0,0-.22-.2c-.05.07-.1.12-.13.17l-.2,0s0,0,0,.05l.12.1c-.1.12-.2.24-.3.34s-.09.07-.11.06-.2,0-.28.09l-.51.39a.32.32,0,0,0-.13.15s.08.08.15.15l-.26.1c0,.28.19.11.37,0l-.4.58v-.13s0,0,0-.07l-.07,0c.07.59-.44.6-.69.8-.11,0-.18-.09-.24-.08a1.06,1.06,0,0,0-.43.64c0,.29-.17.39-.49.23,0,.11,0,.21,0,.3a1.1,1.1,0,0,1,0,.18c-.09.17-.19.33-.28.49a1.48,1.48,0,0,0-.09.18c0-.15-.06-.2-.06-.22l-.26.3c-.08.11-.25.23-.25.35,0,.29-.11.08-.17.07-.14.37-.28.73-.41,1.1,0,0,0,.07,0,.11,0,.3-.09.59-.12.89A8.82,8.82,0,0,0,37,46.81c0,.21,0,.43,0,.65a5.73,5.73,0,0,0,.17.92,2.93,2.93,0,0,1,.2,1.13c0,.07.07.14.07.22,0,.23.22.33.35.47s.41.46.61.7.19.22.17.28c-.13.32.11.49.28.66a10.91,10.91,0,0,0,1,.82,1.2,1.2,0,0,0,.32.16,3.81,3.81,0,0,1,.64.24c.33.21.62.47.94.7.14.1.3.16.45.25s.59.41.9.6a3.68,3.68,0,0,1,.86.62,2.45,2.45,0,0,0,1.57.9A3.43,3.43,0,0,0,47.29,56a8.2,8.2,0,0,0,1.9-.76s.09,0,.13,0,.38-.07.52-.28a.73.73,0,0,1,.47-.25c.18,0,.27-.06.24-.24l.3,0c0-.12,0-.25-.07-.37a4.48,4.48,0,0,1-.15-1.15M39.28,36.94h-.09s0-.13,0-.16l.42-.52.1.05c-.15.21-.29.42-.43.64m.42-.13c0-.18,0-.23.34-.47l-.34.47m.42-.59,0,0,.81-1,.07.05-.83,1M38,44.78h-.09c0-.18,0-.36.05-.54l.11,0c0,.18-.05.36-.07.53m.52,5.36.59.25a.49.49,0,0,1-.59-.25M49.38,43.6s0,.06,0,.09l-.58.09s0-.08,0-.12l.58-.06M47.64,31.18l.1.22-.44.11,0-.05.37-.28m-.33.78c0-.12,0-.23,0-.38.2.24.2.3,0,.38m.35,1c.28,0,.56-.2.86-.09v.06l-.87,0-.59.41a.35.35,0,0,1-.05-.08c.14-.23.42-.24.64-.33m.18,10.85-.41-.06s0-.06,0-.16c.14.1.34,0,.45.22m-.92-10.49-.13.26.14,0v.09h-.26a1.3,1.3,0,0,1-.33.07l.51-.49.07.05m0-.88c0,.28,0,.34-.31.29l.31-.29m-.85.37c.19,0,.24-.13.21-.31l.29-.06c-.22.28-.33.57-.68.61l-.06-.07c.08-.06.15-.16.24-.17m0,2.1-.46.13c.1-.25.26-.24.43-.21l0,.08m-.51-1.57c.15.22.22,0,.36,0l-.47.6-.15-.2.26-.38m-1.64,1.47.07,0-.48.69-.06,0,.47-.69m-1.28-.25-.09-.05,1.19-1.66,0,0-1.15,1.67m.3,2c.31-.34,1.08-.55,1.27-.36l-1.27.36m1.22-1.12c0,.21-.11.34-.44.31.23-.18.18-.56.55-.6,0,0,0,0-.07,0s.14-.17.2-.26a.23.23,0,0,0,0-.1c.06-.09.1-.23.17-.25.27-.07.3-.31.42-.49s.2-.06.3-.09l.06.1-.8.83.06.12-.5.47M44.31,40a1.67,1.67,0,0,1-.73,1.13L44.31,40m-1.1,1.4,0,0-.31.63-.07,0c.11-.21.22-.42.34-.63m-.61,9v.1h-.4c.13,0,.22-.3.39-.1m-1.23.34c-.15.15-.31.14-.47-.08l.47.08m1.61.7c-.06,0-.19,0-.17-.12h0l-.44.18c0,.06,0,.18,0,.31-.24,0-.45-.11-.67-.14a.86.86,0,0,0-.3.09c-.05-.2-.25-.21-.45-.26a5.38,5.38,0,0,1-.65-.2l0-.07a1.91,1.91,0,0,1,.63,0,1.59,1.59,0,0,0,.65.07c.19,0,.19,0,.24.2l.22,0,.13,0L42,51.46l-.15,0a.79.79,0,0,1,.59-.17.32.32,0,0,0,.14,0c.11-.06.19-.06.2.1h0l.27-.23s.1.11.08.16a.33.33,0,0,1-.18.19m.41-.79s-.12,0-.19.07l.08.17-.81.13s-.1,0-.15-.06a.43.43,0,0,0-.19,0,3.18,3.18,0,0,1-.62.06c.5-.06.94-.42,1.51-.24l-.13-.21a3.52,3.52,0,0,0,1.53-.88c.09.29,0,.4-.27.49a1.58,1.58,0,0,0-.76.51m1.7-1.17a.88.88,0,0,1-.48.73,4.27,4.27,0,0,0-.44.3l-.06-.08c.15-.15.32-.29.47-.45a.35.35,0,0,0,.08-.22c0-.07-.09-.12-.16-.2a.27.27,0,0,1,.07-.08.45.45,0,0,0,.22-.4c0-.1.16-.2.25-.29l0,0-.09.21c.22.1.12.3.1.44M45,40.07l-.06,0,.47-.56.05,0-.46.56m.76-3.17s-.12,0-.14.07c-.23.35-.49.12-.73,0l-.22-.1.49-.29h.08c.2.07.38.15.57.21a.29.29,0,0,0,.16,0s0,0,0-.06l-.13-.07c.22-.22.35-.21.61.11l-.24.06a.48.48,0,0,0-.16.12.66.66,0,0,0-.12.17L45.8,37a.15.15,0,0,1,0-.09M46,49c-.13-.13-.13-.29,0-.35a1.4,1.4,0,0,1,.86-.27.86.86,0,0,0,.28-.08c-.13.3-.4.33-.63.4s-.4.06-.49.3m1.88,6.64c-.22.05-.45,0-.6.24,0,0-.16,0-.28,0l.25-.29.73-.12,0,0s-.09.09-.13.1m-.4-11.49h1.72a3.34,3.34,0,0,1-1.72,0m1.22,2.42c.2-.12.44-.07.8.19l-.8-.19m.68-2.36a.3.3,0,0,0,0-.1l.58-.05a.19.19,0,0,0,0,.08l-.57.07" transform="translate(-0.17)" fill="#fff" fill-rule="evenodd"/>
        <path d="M47.22,46.51v-.06h-.61v.06Z" transform="translate(-0.17)" fill="#fff" fill-rule="evenodd"/>
        <path d="M46.08,49.2a.49.49,0,0,1,0,.11,1,1,0,0,0,.23.06s.06,0,.09-.07l-.28-.1" transform="translate(-0.17)" fill="#fff" fill-rule="evenodd"/>
        <path d="M40,39.48l-.09.46H39.8l0-.11-.8.73a.21.21,0,0,1,0-.06.63.63,0,0,0-.3.1c-.29.23-.57.48-.85.72a.75.75,0,0,1-.2.1c.19-.38.68-.47.74-.93a.32.32,0,0,0,.36-.2,2.21,2.21,0,0,1,.52-.44,2.39,2.39,0,0,0,.23-.22,3.62,3.62,0,0,1,.36-.42c0,.12-.16.35.16.26" transform="translate(-0.17)" fill="#fff" fill-rule="evenodd"/>
        <path d="M36.89,44s0-.14,0-.16a.5.5,0,0,1,.21,0c-.11.62-.21,1.2-.31,1.78h0a1.16,1.16,0,0,0,0-.18c0-.06,0-.11-.05-.21a1.74,1.74,0,0,0-.12.23v-.51h0l.08.2c0-.28.2-.55.06-.84,0-.05.1-.18.18-.3" transform="translate(-0.17)" fill="#fff" fill-rule="evenodd"/>
        <path d="M37.2,43.7,37,43.4h.1c.08-.18.16-.34.24-.49l.08,0c-.06.26-.13.52-.2.78" transform="translate(-0.17)" fill="#fff" fill-rule="evenodd"/>
        <path d="M37.71,41.73l.42-.11,0,.09-.29.2,0,.23h-.07l-.07-.4" transform="translate(-0.17)" fill="#fff" fill-rule="evenodd"/>
        <path d="M43.48,37.81h-.35s0,0,0-.07l.7-.3,0,.06-.38.24a.13.13,0,0,1,0,.06" transform="translate(-0.17)" fill="#fff" fill-rule="evenodd"/>
        <path d="M36.51,48.28l-.18-.9a1.19,1.19,0,0,1,.18.9" transform="translate(-0.17)" fill="#fff" fill-rule="evenodd"/>
        <path d="M42.79,37.93c0-.24.16-.35.4-.28l-.4.28" transform="translate(-0.17)" fill="#fff" fill-rule="evenodd"/>
        <path d="M39.8,40.14l-.51.33,0,0,.47-.37a.36.36,0,0,1,.07.1" transform="translate(-0.17)" fill="#fff" fill-rule="evenodd"/>
        <path d="M36.82,47.71c-.08-.1-.36,0-.24-.32l.3.26-.06.06" transform="translate(-0.17)" fill="#fff" fill-rule="evenodd"/>
        <path d="M42.42,37.77l0,.17-.36.08.27-.29.06,0" transform="translate(-0.17)" fill="#fff" fill-rule="evenodd"/>
        <path d="M36.47,46.37,36.7,46l.07,0c-.07.12-.15.24-.22.37l-.08-.05" transform="translate(-0.17)" fill="#fff" fill-rule="evenodd"/>
      </g>
    </g>
    <rect x="52.77" y="33.61" width="2.98" height="2.98" fill="#fff"/>
    <rect x="55.75" y="45.53" width="2.98" height="2.98" fill="#fff"/>
    <rect x="46.81" y="36.59" width="2.98" height="2.98" fill="#fff"/>
    <rect x="60.34" y="46.24" width="2.98" height="2.98" fill="#fff"/>
    <rect x="49.79" y="39.57" width="2.98" height="2.98" fill="#fff"/>
    <rect x="43.83" y="48.52" width="2.98" height="2.98" fill="#fff"/>
    <rect x="55.75" y="42.55" width="2.98" height="2.98" fill="#fff"/>
    <rect x="46.81" y="42.55" width="2.98" height="2.98" fill="#fff"/>
    <rect x="49.79" y="33.61" width="2.98" height="2.98" fill="#fff"/>
    <rect x="49.79" y="48.52" width="2.98" height="2.98" fill="#fff"/>
    <rect x="55.75" y="36.59" width="2.98" height="2.98" fill="#fff"/>
    <rect x="52.77" y="39.57" width="2.98" height="2.98" fill="#fff"/>
    <rect x="58.73" y="39.57" width="2.98" height="2.98" fill="#fff"/>
    <rect x="40.84" y="39.58" width="2.98" height="2.98" fill="#fff"/>
    <rect x="46.81" y="51.5" width="2.98" height="2.98" fill="#fff"/>
    <rect x="52.77" y="28.99" width="2.98" height="2.98" fill="#fff"/>
    <rect x="52.77" y="42.55" width="2.98" height="2.98" fill="#fff"/>
    <rect x="49.79" y="45.53" width="2.98" height="2.98" fill="#fff"/>
    <rect x="49.79" y="36.59" width="2.98" height="2.98" fill="#fff"/>
    <rect x="46.81" y="33.61" width="2.98" height="2.98" fill="#fff"/>
    <rect x="49.79" y="51.5" width="2.98" height="2.98" fill="#fff"/>
    <rect x="46.81" y="48.52" width="2.98" height="2.98" fill="#fff"/>
    <rect x="58.28" y="31.78" width="2.98" height="2.98" fill="#fff"/>
    <rect x="52.77" y="48.52" width="2.98" height="2.98" fill="#fff"/>
    <g clip-path="url(#a)">
      <g>
        <g clip-path="url(#bz)">
          <rect x="52.77" y="33.61" width="2.98" height="2.98" fill="#fff"/>
        </g>
        <g clip-path="url(#ca)">
          <rect x="55.75" y="45.53" width="2.98" height="2.98" fill="#fff"/>
        </g>
        <g clip-path="url(#cb)">
          <rect x="46.81" y="36.59" width="2.98" height="2.98" fill="#fff"/>
        </g>
        <g clip-path="url(#cc)">
          <rect x="60.34" y="46.24" width="2.98" height="2.98" fill="#fff"/>
        </g>
        <g clip-path="url(#cd)">
          <rect x="49.79" y="39.57" width="2.98" height="2.98" fill="#fff"/>
        </g>
        <g clip-path="url(#ce)">
          <rect x="43.83" y="48.52" width="2.98" height="2.98" fill="#fff"/>
        </g>
      </g>
    </g>
    <g clip-path="url(#a)">
      <g>
        <g clip-path="url(#cg)">
          <rect x="55.75" y="42.55" width="2.98" height="2.98" fill="#fff"/>
        </g>
        <g clip-path="url(#ch)">
          <rect x="46.81" y="42.55" width="2.98" height="2.98" fill="#fff"/>
        </g>
        <g clip-path="url(#ci)">
          <rect x="49.79" y="33.61" width="2.98" height="2.98" fill="#fff"/>
        </g>
        <g clip-path="url(#cj)">
          <rect x="49.79" y="48.52" width="2.98" height="2.98" fill="#fff"/>
        </g>
      </g>
    </g>
    <g clip-path="url(#a)">
      <g>
        <g clip-path="url(#cl)">
          <rect x="55.75" y="36.59" width="2.98" height="2.98" fill="#fff"/>
        </g>
        <g clip-path="url(#cm)">
          <rect x="52.77" y="39.57" width="2.98" height="2.98" fill="#fff"/>
        </g>
        <g clip-path="url(#cn)">
          <rect x="46.81" y="45.53" width="2.98" height="2.98" fill="#fff"/>
        </g>
        <g clip-path="url(#co)">
          <rect x="58.73" y="39.57" width="2.98" height="2.98" fill="#fff"/>
        </g>
        <g clip-path="url(#cp)">
          <rect x="40.85" y="39.58" width="2.98" height="2.98" fill="#fff"/>
        </g>
        <g clip-path="url(#cq)">
          <rect x="46.81" y="51.5" width="2.98" height="2.98" fill="#fff"/>
        </g>
      </g>
    </g>
    <g clip-path="url(#a)">
      <g>
        <g clip-path="url(#cs)">
          <rect x="52.77" y="28.99" width="2.98" height="2.98" fill="#fff"/>
        </g>
        <g clip-path="url(#ct)">
          <rect x="52.77" y="42.55" width="2.98" height="2.98" fill="#fff"/>
        </g>
        <g clip-path="url(#cu)">
          <rect x="49.79" y="45.53" width="2.98" height="2.98" fill="#fff"/>
        </g>
        <g clip-path="url(#cv)">
          <rect x="46.81" y="33.61" width="2.98" height="2.98" fill="#fff"/>
        </g>
        <g clip-path="url(#cw)">
          <rect x="46.81" y="48.52" width="2.98" height="2.98" fill="#fff"/>
        </g>
      </g>
    </g>
    <rect x="58.28" y="31.78" width="2.98" height="2.98" fill="#fff"/>
    <rect x="52.77" y="48.52" width="2.98" height="2.98" fill="#fff"/>
    <rect x="46.81" y="30.63" width="2.98" height="2.98" fill="#fff"/>
    <rect x="46.81" y="39.57" width="2.98" height="2.98" fill="#fff"/>
    <rect x="49.79" y="36.59" width="2.98" height="2.98" fill="#fff"/>
    <rect x="46.81" y="45.53" width="2.98" height="2.98" fill="#fff"/>
    <rect x="49.79" y="51.5" width="2.98" height="2.98" fill="#fff"/>
    <g clip-path="url(#a)">
      <g>
        <path d="M83,65.61v-3.8h1.17v3.76c0,.74.18,1.1,1.09,1.1s1.12-.36,1.12-1.1V61.8h1.14v3.8c0,1.52-.75,2.06-2.26,2.06s-2.26-.54-2.26-2" transform="translate(-0.17)" fill="#fff"/>
        <path d="M88.48,63.48h1.1v.42a1.69,1.69,0,0,1,1.27-.49c.92,0,1.22.51,1.22,1.39v2.82H91V65c0-.34-.1-.63-.58-.63s-.81.21-.81.94v2.3h-1.1Z" transform="translate(-0.17)" fill="#fff"/>
        <path d="M92.71,65.66v-.23a1.79,1.79,0,0,1,1.51-2,2.71,2.71,0,0,1,.4,0c1.24,0,1.78.67,1.78,1.86v.61H93.8c0,.62.21.91.8.91s.69-.14.76-.46l1,.16a1.6,1.6,0,0,1-1.78,1.17c-1.39,0-1.91-.76-1.91-2m1.1-.58h1.52c0-.49-.16-.75-.72-.75s-.75.26-.8.75" transform="translate(-0.17)" fill="#fff"/>
        <path d="M98.5,65.66v-.23a1.78,1.78,0,0,1,1.52-2,1.76,1.76,0,0,1,.4,0c1.23,0,1.77.67,1.77,1.86v.61h-2.6c0,.62.21.91.81.91s.68-.14.75-.46l1,.16a1.6,1.6,0,0,1-1.77,1.17c-1.4,0-1.92-.76-1.92-2m2.29-3.76h1.29l-1.35,1.15H99.56ZM99.6,65.08h1.52c0-.49-.17-.75-.72-.75s-.75.26-.8.75" transform="translate(-0.17)" fill="#fff"/>
        <path d="M102.64,65.67v-.23a1.8,1.8,0,0,1,1.53-2,2.67,2.67,0,0,1,.4,0,1.59,1.59,0,0,1,1.79,1.38.61.61,0,0,1,0,.14l-1.12.2c0-.56-.29-.75-.71-.75-.62,0-.77.37-.77,1.13v.08c0,.73.19,1.14.77,1.14s.71-.2.75-.66l1.1.15a1.9,1.9,0,0,1-3.75-.55" transform="translate(-0.17)" fill="#fff"/>
        <path d="M106.79,65.66v-.23c0-1.14.49-2,1.9-2A1.74,1.74,0,0,1,110.6,65a2.26,2.26,0,0,1,0,.45v.24a1.9,1.9,0,1,1-3.8,0m2.68-.07v-.1c0-.77-.17-1.11-.79-1.11s-.78.35-.78,1.12v.09c0,.75.22,1.13.78,1.13s.79-.37.79-1.13" transform="translate(-0.17)" fill="#fff"/>
        <rect x="111.12" y="61.53" width="1.1" height="6.09" fill="#fff"/>
        <path d="M113.11,65.66v-.23a1.78,1.78,0,0,1,1.51-2,2.64,2.64,0,0,1,.4,0c1.23,0,1.77.67,1.77,1.86v.61h-2.6c0,.62.21.91.81.91s.68-.14.75-.46l1,.16A1.59,1.59,0,0,1,115,67.66c-1.39,0-1.91-.76-1.91-2m1.1-.58h1.52c0-.49-.17-.75-.73-.75s-.75.26-.8.75" transform="translate(-0.17)" fill="#fff"/>
        <path d="M90.52,73v-.32C90.52,71.08,91,70,93,70a1.91,1.91,0,0,1,2.2,1.58,1.84,1.84,0,0,1,0,.33L94,72.05c0-.69-.33-1.1-1-1.1-1,0-1.26.63-1.26,1.69V73c0,1.14.29,1.69,1.28,1.69.76,0,1-.33,1.09-1.17l1.2.13a2.11,2.11,0,0,1-2.19,2l-.19,0c-1.78,0-2.33-1.12-2.33-2.67" transform="translate(-0.17)" fill="#fff"/>
        <path d="M95.65,73v-.32c0-1.56.52-2.68,2.43-2.68a1.91,1.91,0,0,1,2.2,1.58,1.84,1.84,0,0,1,0,.33l-1.22.18c0-.69-.33-1.1-1-1.1-1,0-1.26.63-1.26,1.69V73c0,1.14.29,1.69,1.28,1.69.76,0,1-.33,1.09-1.17l1.2.13a2.12,2.12,0,0,1-2.19,2l-.19,0c-1.78,0-2.33-1.12-2.33-2.67" transform="translate(-0.17)" fill="#fff"/>
        <rect x="100.91" y="70" width="1.13" height="5.59" fill="#fff"/>
        <path d="M104.89,70h2.4c1,0,1.93.24,1.93,1.41a1.1,1.1,0,0,1-.74,1.19,1.27,1.27,0,0,1,.88,1.33c0,1.14-.65,1.66-1.94,1.66h-2.53Zm2.4,2.17c.5,0,.8-.19.8-.65s-.25-.64-.8-.64H106v1.3Zm.13,2.55a.74.74,0,0,0,.8-.66v-.13a.71.71,0,0,0-.6-.81.67.67,0,0,0-.2,0H106v1.6Z" transform="translate(-0.17)" fill="#fff"/>
        <path d="M110,73v-.32c0-1.47.49-2.68,2.41-2.68s2.42,1.2,2.42,2.65V73c0,1.35-.58,2.68-2.42,2.68S110,74.41,110,73m3.7,0v-.36c0-1.18-.37-1.67-1.29-1.67s-1.27.5-1.27,1.68V73c0,1.17.44,1.7,1.27,1.7s1.29-.52,1.29-1.69" transform="translate(-0.17)" fill="#fff"/>
        <path d="M117.82,73.4h-1.09v2.2h-1.12V70h2.44c1,0,1.94.28,1.94,1.67a1.54,1.54,0,0,1-1,1.56l1.13,2.36h-1.21Zm.08-.93c.64,0,1-.23,1-.78s-.3-.76-1-.76h-1.17v1.54Z" transform="translate(-0.17)" fill="#fff"/>
        <path d="M120.87,70h1.94c2,0,2.42,1.07,2.42,2.61V73c0,1.53-.61,2.63-2.41,2.63h-1.95Zm1.95,4.65c1.05,0,1.28-.66,1.28-1.7v-.34c0-1.18-.31-1.66-1.29-1.66H122v3.7Z" transform="translate(-0.17)" fill="#fff"/>
        <path d="M126,70h3.8v1h-2.67v1.08h2.4v1h-2.4v1.57h2.67v1H126Z" transform="translate(-0.17)" fill="#fff"/>
        <path d="M132.2,70h1.14l1.9,5.64h-1.13l-.39-1.13h-1.94l-.37,1.13h-1.1Zm-.11,3.61h1.33l-.67-2Z" transform="translate(-0.17)" fill="#fff"/>
        <path d="M135.7,73.67V70h1.13v3.62c0,.71.18,1.06,1,1.06s1.08-.35,1.08-1.05V70h1.1v3.65c0,1.47-.72,2-2.18,2s-2.18-.52-2.18-2" transform="translate(-0.17)" fill="#fff"/>
        <path d="M142.41,72.58,140.84,70h1.22l1,1.67L144,70h1.14l-1.52,2.58,1.84,3h-1.22L143,73.51,141.8,75.6h-1.2Z" transform="translate(-0.17)" fill="#fff"/>
        <path d="M149.79,72.43h2.36V75.6h-.89l-.12-.55a1.62,1.62,0,0,1-1.48.58c-1.73,0-2.21-1.06-2.21-2.67v-.32c0-1.69.64-2.68,2.42-2.68a2,2,0,0,1,2.21,1.65v0l-1.21.18c-.06-.66-.42-.87-1-.87-1.05,0-1.27.67-1.27,1.68V73c0,1.07.24,1.7,1.27,1.7a1.09,1.09,0,0,0,1.23-.94,1.69,1.69,0,0,0,0-.23v-.13h-1.3Z" transform="translate(-0.17)" fill="#fff"/>
        <rect x="153" y="70" width="1.13" height="5.59" fill="#fff"/>
        <path d="M157.61,73.4h-1.09v2.2h-1.13V70h2.44c1,0,1.94.28,1.94,1.67a1.54,1.54,0,0,1-1,1.56l1.13,2.36h-1.21Zm.08-.93c.63,0,.95-.23.95-.78s-.3-.76-.95-.76h-1.17v1.54Z" transform="translate(-0.17)" fill="#fff"/>
        <path d="M160.32,73v-.32c0-1.47.49-2.68,2.41-2.68s2.43,1.2,2.43,2.65V73c0,1.35-.59,2.68-2.43,2.68s-2.41-1.22-2.41-2.67m3.7,0v-.36c0-1.18-.36-1.67-1.29-1.67s-1.27.5-1.27,1.68V73c0,1.17.44,1.7,1.27,1.7S164,74.15,164,73" transform="translate(-0.17)" fill="#fff"/>
        <path d="M166,70h1.35l1.93,3.47V70h1.09v5.59h-1.11L167,71.68v3.91H166Z" transform="translate(-0.17)" fill="#fff"/>
        <path d="M171.4,70h1.94c2,0,2.42,1.07,2.42,2.61V73c0,1.53-.61,2.63-2.41,2.63H171.4Zm1.95,4.65c1.05,0,1.28-.66,1.28-1.7v-.34c0-1.18-.31-1.66-1.29-1.66h-.81v3.7Z" transform="translate(-0.17)" fill="#fff"/>
        <path d="M176.57,70h3.8v1H177.7v1.08h2.4v1h-2.4v1.57h2.67v1h-3.8Z" transform="translate(-0.17)" fill="#fff"/>
        <path d="M82.11,72.8a3.57,3.57,0,0,0,3.56,3.56,3.52,3.52,0,0,0,2.18-.76l-.75-.84a2.43,2.43,0,0,1-2.87-3.92,2.48,2.48,0,0,1,1.44-.47,2.35,2.35,0,0,1,1,.21l.45-1a3.56,3.56,0,0,0-4.68,1.84,3.48,3.48,0,0,0-.3,1.42" transform="translate(-0.17)" fill="#fff"/>
        <path d="M83.77,72.8a1.88,1.88,0,0,0,3,1.56s-.7-.79-.77-.85a.73.73,0,0,1-.3.06.78.78,0,0,1,0-1.55.71.71,0,0,1,.32.07l.44-1a1.76,1.76,0,0,0-.76-.16,1.89,1.89,0,0,0-1.89,1.89" transform="translate(-0.17)" fill="#fff"/>
        <path d="M88.1,71.59l-1,.47a1.59,1.59,0,0,1,.18.74,1.73,1.73,0,0,1-.35,1l.76.84a2.73,2.73,0,0,0,.72-1.84,2.7,2.7,0,0,0-.29-1.21" transform="translate(-0.17)" fill="#fff"/>
        <path d="M87.62,69.7l-.86,1.94h0l1.93-.9a3.54,3.54,0,0,0-1.07-1" transform="translate(-0.17)" fill="#fff"/>
        <path d="M84.34,24.74A5.9,5.9,0,0,0,90,30.85h.29a6.13,6.13,0,0,0,4.9-2.4h.21l1.8,1.47v.2A8.85,8.85,0,1,1,89.6,16.05c.22,0,.45,0,.67,0a8.71,8.71,0,0,1,7,3.3v.2L95.43,21h-.21a6.14,6.14,0,0,0-4.9-2.4,5.92,5.92,0,0,0-6,5.83v.29" transform="translate(-0.17)" fill="#fff"/>
        <path d="M112.25,32.82l-.1.18a2.74,2.74,0,0,1-1.55.44,2.33,2.33,0,0,1-2.35-1.68,6.41,6.41,0,0,1-4.41,1.68c-2.66,0-5.11-1.47-5.11-4.26S101.31,25,104.49,25a9.63,9.63,0,0,1,3.4.6v-.72c0-1.86-1.68-2.76-3.46-2.76a4.83,4.83,0,0,0-3.5,1.5h-.21L99.3,22.28v-.21a7.49,7.49,0,0,1,5.39-2.14c2.79,0,6,1.24,6,4.95v5c0,.7.13,1.13.59,1.13a.64.64,0,0,0,.42-.15l.18.08Zm-4.36-5.32a8.57,8.57,0,0,0-3-.59c-2,0-3.3.88-3.3,2.27s1.4,2.19,2.87,2.19c1.78,0,3.48-1.11,3.48-2.91Z" transform="translate(-0.17)" fill="#fff"/>
        <path d="M135.64,25.36v7.77h-2.81V25.6c0-2-1.11-3.25-2.94-3.25a3.05,3.05,0,0,0-3.2,2.91,1.93,1.93,0,0,0,0,.34v7.53h-2.83V25.6c0-2-1.09-3.25-2.94-3.25a3.05,3.05,0,0,0-3.18,2.92c0,.11,0,.22,0,.33v7.53h-2.83V23.51c0-.7-.1-1.14-.6-1.14a.62.62,0,0,0-.41.16l-.18-.08-.41-1.91.1-.18a2.64,2.64,0,0,1,1.57-.44,2.27,2.27,0,0,1,2.35,1.62,5.91,5.91,0,0,1,4.15-1.62,4.91,4.91,0,0,1,4.33,2.19,5.76,5.76,0,0,1,4.65-2.19c3.2,0,5.18,2.22,5.18,5.44" transform="translate(-0.17)" fill="#fff"/>
        <path d="M152.88,26.68a6.45,6.45,0,0,1-6.14,6.75h-.42a6.22,6.22,0,0,1-4.15-1.58V37h-2.81V23.51c0-.7-.1-1.14-.59-1.14a.67.67,0,0,0-.42.16l-.18-.08-.41-1.91.1-.18a2.7,2.7,0,0,1,1.6-.44,2.32,2.32,0,0,1,2.38,1.88,6.2,6.2,0,0,1,4.48-1.88,6.45,6.45,0,0,1,6.56,6.34c0,.14,0,.28,0,.42m-2.87,0a4.06,4.06,0,0,0-3.81-4.3H146A4.32,4.32,0,0,0,146,31a4.05,4.05,0,0,0,4-4.07,1.93,1.93,0,0,0,0-.24" transform="translate(-0.17)" fill="#fff"/>
        <path d="M168.66,32.82l-.1.18a2.66,2.66,0,0,1-1.6.44,2.27,2.27,0,0,1-2.3-1.6,5.61,5.61,0,0,1-4,1.6,4.94,4.94,0,0,1-5.31-4.52,4.57,4.57,0,0,1,0-.74V20.23h2.81v7.71a2.79,2.79,0,0,0,3,3.07,3,3,0,0,0,3.15-2.94c0-.1,0-.2,0-.31V20.23h2.79v9.62c0,.7.13,1.14.59,1.14a.7.7,0,0,0,.42-.16l.18.08Z" transform="translate(-0.17)" fill="#fff"/>
        <path d="M175.19,19.92a5.88,5.88,0,0,1,4.72,2v.2l-1.45,1.24h-.2a4,4,0,0,0-3-1.36c-1.26,0-1.93.59-1.93,1.39s.8,1.26,2.22,1.83c2,.75,4.82,1.57,4.82,4.33,0,2.45-2.22,3.85-5,3.85A6.86,6.86,0,0,1,170,31v-.21l1.44-1.26h.21a4.45,4.45,0,0,0,3.53,1.75c1.4,0,2.35-.67,2.35-1.65,0-1.19-1.32-1.63-2.89-2.22-2-.72-4.1-1.52-4.1-3.84,0-2.17,1.86-3.69,4.7-3.69" transform="translate(-0.17)" fill="#fff"/>
        <path d="M96.41,53.15l-.1.18a2.67,2.67,0,0,1-1.55.44,2.34,2.34,0,0,1-2.4-1.86,6.21,6.21,0,0,1-4.57,1.86A6.76,6.76,0,1,1,92,41.83V36.26l2.61-.39.18.13V50.19c0,.7.13,1.13.59,1.13a.69.69,0,0,0,.42-.15l.18.07ZM92.26,47a3.94,3.94,0,0,0-4-4.31,4.32,4.32,0,0,0,0,8.62c2.22,0,4-1.5,4-4.31" transform="translate(-0.17)" fill="#fff"/>
        <path d="M111.83,53.15l-.1.18a2.59,2.59,0,0,1-1.6.44,2.27,2.27,0,0,1-2.3-1.6,5.56,5.56,0,0,1-4,1.6,4.93,4.93,0,0,1-5.31-4.52,4.57,4.57,0,0,1,0-.74V40.56h2.81v7.72a2.79,2.79,0,0,0,3,3.07,3.06,3.06,0,0,0,3.15-2.94c0-.11,0-.21,0-.31V40.56h2.79v9.62c0,.71.13,1.14.59,1.14a.65.65,0,0,0,.42-.16l.18.08Z" transform="translate(-0.17)" fill="#fff"/>
        <path d="M131.08,53.46H120.66V36.69h2.86V51h7.56Z" transform="translate(-0.17)" fill="#fff"/>
        <path d="M145.78,53.15l-.1.18a2.67,2.67,0,0,1-1.55.44,2.31,2.31,0,0,1-2.34-1.68,6.43,6.43,0,0,1-4.41,1.68c-2.66,0-5.11-1.47-5.11-4.26s2.58-4.17,5.75-4.17a9.72,9.72,0,0,1,3.41.59v-.72c0-1.86-1.68-2.76-3.46-2.76a4.85,4.85,0,0,0-3.51,1.5h-.21l-1.42-1.34V42.4a7.49,7.49,0,0,1,5.4-2.14c2.78,0,6,1.24,6,5v5c0,.7.13,1.13.6,1.13a.63.63,0,0,0,.41-.15l.18.08Zm-4.36-5.31a8.8,8.8,0,0,0-3-.6c-2,0-3.3.88-3.3,2.27s1.39,2.2,2.86,2.2c1.78,0,3.48-1.11,3.48-2.92Z" transform="translate(-0.17)" fill="#fff"/>
        <path d="M147.2,47a6.69,6.69,0,0,1,6.61-6.76h.36a6.8,6.8,0,0,1,5.28,2.27v.21l-1.62,1.42h-.21a4.68,4.68,0,0,0-3.38-1.45,4.1,4.1,0,0,0-4.18,4V47a4.06,4.06,0,0,0,3.82,4.28h.44a4.27,4.27,0,0,0,3.3-1.44h.21l1.62,1.41v.21a6.82,6.82,0,0,1-5.29,2.27,6.69,6.69,0,0,1-7-6.4V47" transform="translate(-0.17)" fill="#fff"/>
      </g>
    </g>
  </g>
</svg>
